<svg width="1280" height="375" xmlns="http://www.w3.org/2000/svg" xmlns:xlink="http://www.w3.org/1999/xlink" overflow="hidden"><defs><clipPath id="clip0"><rect x="0" y="0" width="1280" height="375"/></clipPath></defs><g clip-path="url(#clip0)"><rect x="0" y="0" width="1280" height="375.501" fill="#000000" fill-opacity="0"/><path d="M0.485202 82.2288 0.485202 0.142145 11.4852 0.142145 11.4852 94.1421Z" fill="#FFFFFF" fill-rule="evenodd" transform="matrix(1 0 0 -1.00134 1269 95.1268)"/><path d="M11.4419 94.1441 11.4419 0.144059 0.441906 0.144059 0.441906 82.229Z" fill="#FFFFFF" fill-rule="evenodd" transform="matrix(1 0 0 -1.00134 1050 95.1268)"/><path d="M12.4263 94.1441 12.4263 0.144059 0.426289 0.144059 0.426289 82.229Z" fill="#FFFFFF" fill-rule="evenodd" transform="matrix(1 0 0 -1.00134 797 95.1268)"/><path d="M21.4221 16.4018 75.3303 16.4018 75.3303 110.132 63.8973 98.2528 63.8973 24.5992 45.7976 24.5992 45.8543 52.1455 36.3624 45.3664 36.3212 24.5992 21.5049 24.5992C21.5049 24.5992 20.0096 35.9873 12.7425 41.2451L6.38233 34.9844C6.38233 34.9844 24.776 17.5202 0.330083 0.131715 0.330083 0.131715 15.4681 3.44248 21.4221 16.4018" fill="#FFFFFF" fill-rule="evenodd" transform="matrix(1 0 0 -1.00134 424 111.148)"/><path d="M18.3606 94.1441 18.3606 8.36335 0.438862 8.36335 0.438862 0.144059 29.4391 0.144059 29.4391 82.229Z" fill="#FFFFFF" fill-rule="evenodd" transform="matrix(1 0 0 -1.00134 1013 95.1268)"/><path d="M12.4739 76.142 12.4739 0.142045 0.473904 0.142045 0.473904 67.0439Z" fill="#FFFFFF" fill-rule="evenodd" transform="matrix(1 0 0 -1.00134 1012 76.1015)"/><path d="M11.4234 75.1424 11.4234 0.142431 0.423141 0.142431 0.423141 66.1829Z" fill="#FFFFFF" fill-rule="evenodd" transform="matrix(1 0 0 -1.00134 922 76.1015)"/><path d="M19.5062 8.35125 19.5062 94.1307 30.7572 82.2175 30.7572 8.35125 41.8545 8.35125 41.8545 18.5578 50.2745 18.5578 50.2745 8.35125 57.4214 8.35125 57.4214 21.3509 65.8968 26.9655 65.8968 8.35125 73.0282 8.35125 73.0282 31.9845 81.4361 37.5688 81.4361 0.130417 0.435874 0.130417 0.435874 8.35125Z" fill="#FFFFFF" fill-rule="evenodd" transform="matrix(1 0 0 -1.00134 921 95.1268)"/><path d="M11.9823 8.35125 11.9823 94.1307 0.493156 82.2175 0.493156 0.130417 69.4934 0.130417 69.4934 82.2175 58.006 94.1307 58.006 8.35125 50.2783 8.35125C50.2783 8.35125 45.2515 9.45274 44.2375 17.1538 43.2096 24.8609 38.55 34.5678 20.2194 32.2612L20.2194 24.1528C20.2194 24.1528 33.0434 28.4638 35.2812 16.6676 35.2812 16.6676 36.198 11.0544 38.6905 8.35125Z" fill="#FFFFFF" fill-rule="evenodd" transform="matrix(1 0 0 -1.00134 1189 95.1268)"/><path d="M11.4865 5.62558C11.4865 2.61553 9.01063 0.143877 5.97917 0.143877 2.94921 0.143877 0.486211 2.61553 0.486211 5.62558 0.486211 8.69671 2.94921 11.1441 5.97917 11.1441 9.01063 11.1441 11.4865 8.69671 11.4865 5.62558" fill="#FFFFFF" fill-rule="evenodd" transform="matrix(1 0 0 -1.00134 1087 53.0708)"/><path d="M10.4685 5.64963C10.4685 2.63589 8.22942 0.156682 5.46972 0.156682 2.71025 0.156682 0.46846 2.63589 0.46846 5.64963 0.46846 8.7208 2.71025 11.1569 5.46972 11.1569 8.22942 11.1569 10.4685 8.7208 10.4685 5.64963" fill="#FFFFFF" fill-rule="evenodd" transform="matrix(1 0 0 -1.00134 1216 112.15)"/><path d="M10.4396 5.62558C10.4396 2.61553 8.19782 0.143877 5.43812 0.143877 2.67865 0.143877 0.439611 2.61553 0.439611 5.62558 0.439611 8.69671 2.67865 11.1441 5.43812 11.1441 8.19782 11.1441 10.4396 8.69671 10.4396 5.62558" fill="#FFFFFF" fill-rule="evenodd" transform="matrix(1 0 0 -1.00134 1072 53.0708)"/><path d="M11.4328 5.64074C11.4328 2.6126 8.96508 0.143896 5.92544 0.143896 2.87168 0.143896 0.432757 2.6126 0.432757 5.64074 0.432757 8.71861 2.87168 11.1441 5.92544 11.1441 8.96508 11.1441 11.4328 8.71861 11.4328 5.64074" fill="#FFFFFF" fill-rule="evenodd" transform="matrix(1 0 0 -1.00134 838 53.0708)"/><path d="M10.391 5.64074C10.391 2.6126 8.13017 0.143896 5.36616 0.143896 2.62557 0.143896 0.390955 2.6126 0.390955 5.64074 0.390955 8.71861 2.62557 11.1441 5.36616 11.1441 8.13017 11.1441 10.391 8.71861 10.391 5.64074" fill="#FFFFFF" fill-rule="evenodd" transform="matrix(1 0 0 -1.00134 823 53.0708)"/><path d="M10.3991 5.64656C10.3991 2.62328 8.15469 0.157024 5.40643 0.157024 2.6451 0.157024 0.399092 2.62328 0.399092 5.64656 0.399092 8.68119 2.6451 11.157 5.40643 11.157 8.15469 11.157 10.3991 8.68119 10.3991 5.64656" fill="#FFFFFF" fill-rule="evenodd" transform="matrix(1 0 0 -1.00134 867 113.151)"/><path d="M11.4346 5.64656C11.4346 2.62328 8.95907 0.157024 5.94345 0.157024 2.88306 0.157024 0.434647 2.62328 0.434647 5.64656 0.434647 8.68119 2.88306 11.157 5.94345 11.157 8.95907 11.157 11.4346 8.68119 11.4346 5.64656" fill="#FFFFFF" fill-rule="evenodd" transform="matrix(1 0 0 -1.00134 851 113.151)"/><path d="M11.3881 5.64656C11.3881 2.62328 8.90459 0.157024 5.86714 0.157024 2.85691 0.157024 0.387814 2.62328 0.387814 5.64656 0.387814 8.68119 2.85691 11.157 5.86714 11.157 8.90459 11.157 11.3881 8.68119 11.3881 5.64656" fill="#FFFFFF" fill-rule="evenodd" transform="matrix(1 0 0 -1.00134 634 113.151)"/><path d="M10.3492 5.64656C10.3492 2.62328 8.10715 0.157024 5.36073 0.157024 2.60263 0.157024 0.34917 2.62328 0.34917 5.64656 0.34917 8.68119 2.60263 11.157 5.36073 11.157 8.10715 11.157 10.3492 8.68119 10.3492 5.64656" fill="#FFFFFF" fill-rule="evenodd" transform="matrix(1 0 0 -1.00134 619 113.151)"/><path d="M10.3096 5.6643C10.3096 2.6146 8.05449 0.14663 5.31105 0.14663 2.52524 0.14663 0.309559 2.6146 0.309559 5.6643 0.309559 8.69153 2.52524 11.1466 5.31105 11.1466 8.05449 11.1466 10.3096 8.69153 10.3096 5.6643" fill="#FFFFFF" fill-rule="evenodd" transform="matrix(1 0 0 -1.00134 421 65.0868)"/><path d="M11.3501 5.64656C11.3501 2.62328 8.86588 0.157024 5.84341 0.157024 2.80354 0.157024 0.349843 2.62328 0.349843 5.64656 0.349843 8.68119 2.80354 11.157 5.84341 11.157 8.86588 11.157 11.3501 8.68119 11.3501 5.64656" fill="#FFFFFF" fill-rule="evenodd" transform="matrix(1 0 0 -1.00134 461 113.151)"/><path d="M10.3141 5.64656C10.3141 2.62328 8.06233 0.157024 5.31986 0.157024 2.53967 0.157024 0.314143 2.62328 0.314143 5.64656 0.314143 8.68119 2.53967 11.157 5.31986 11.157 8.06233 11.157 10.3141 8.68119 10.3141 5.64656" fill="#FFFFFF" fill-rule="evenodd" transform="matrix(1 0 0 -1.00134 446 113.151)"/><path d="M10.3029 5.64656C10.3029 2.62328 8.07418 0.157024 5.27831 0.157024 2.54493 0.157024 0.302919 2.62328 0.302919 5.64656 0.302919 8.68119 2.54493 11.157 5.27831 11.157 8.07418 11.157 10.3029 8.68119 10.3029 5.64656" fill="#FFFFFF" fill-rule="evenodd" transform="matrix(1 0 0 -1.00134 388 113.151)"/><path d="M11.3295 5.64656C11.3295 2.62328 8.8665 0.157024 5.83831 0.157024 2.79226 0.157024 0.329255 2.62328 0.329255 5.64656 0.329255 8.68119 2.79226 11.157 5.83831 11.157 8.8665 11.157 11.3295 8.68119 11.3295 5.64656" fill="#FFFFFF" fill-rule="evenodd" transform="matrix(1 0 0 -1.00134 372 113.151)"/><path d="M11.3816 5.13321C11.3816 2.37064 8.94406 0.131026 5.8958 0.131026 2.84602 0.131026 0.381568 2.37064 0.381568 5.13321 0.381568 7.89899 2.84602 10.1313 5.8958 10.1313 8.94406 10.1313 11.3816 7.89899 11.3816 5.13321" fill="#FFFFFF" fill-rule="evenodd" transform="matrix(1 0 0 -1.00134 607 53.0708)"/><path d="M10.3444 5.13321C10.3444 2.37064 8.10071 0.131026 5.36333 0.131026 2.5865 0.131026 0.344179 2.37064 0.344179 5.13321 0.344179 7.89899 2.5865 10.1313 5.36333 10.1313 8.10071 10.1313 10.3444 7.89899 10.3444 5.13321" fill="#FFFFFF" fill-rule="evenodd" transform="matrix(1 0 0 -1.00134 592 53.0708)"/><path d="M11.8725 8.35125 23.7079 8.35125C22.0765 9.25077 21.3168 8.86479 20.095 12.9599 19.3093 15.7527 19.2385 22.5923 19.7422 25.4687 20.3322 29.0716 21.2768 30.9163 22.8915 32.3507 25.056 34.3687 29.1605 35.8777 32.0985 35.8777L56.1024 35.8777 56.1024 26.5855 38.4784 26.5855C34.2618 26.0856 34.4573 26.0856 32.4343 25.0447 29.3578 23.5754 29.7797 20.7277 29.7797 17.1538 29.7797 13.0511 29.9893 12.0451 32.2094 10.4693 34.4311 8.84803 34.9365 8.86479 38.6618 8.35125L38.7036 8.35125 67.907 8.35125 67.907 94.1307 79.3914 82.2175 79.3914 0.130417 0.391117 0.130417 0.391117 82.2175 11.8725 94.1307Z" fill="#FFFFFF" fill-rule="evenodd" transform="matrix(1 0 0 -1.00134 710 95.1268)"/><path d="M73.6966 8.35125C73.7656 10.8782 76.8131 14.9489 79.4545 15.9595 81.955 16.9289 85.3536 19.0244 85.3536 19.0244L85.4072 8.35125ZM9.93296 8.35125C9.97447 10.8782 13.022 14.9489 15.6634 15.9595 18.1532 16.9289 21.5484 19.0244 21.5484 19.0244L21.5762 8.35125ZM103.928 94.1307 103.928 8.35125 94.1988 8.35125 94.1713 36.1708C94.1713 36.1708 86.498 28.4638 79.2309 27.0643 69.8647 25.2545 64.3027 13.9506 64.1618 8.35125L57.5121 8.35125 57.6223 34.674 47.4042 27.3682 47.4042 8.35125 30.4383 8.35125 30.3939 36.1708C30.3939 36.1708 22.6808 28.754 15.4397 27.0643 5.57236 24.7621 0.401266 13.9506 0.373759 8.35125L0.373759 0.130417 115.374 0.130417 115.374 82.2175Z" fill="#FFFFFF" fill-rule="evenodd" transform="matrix(1 0 0 -1.00134 586 95.1268)"/><path d="M40.1671 8.35125C40.2237 10.8782 43.2925 14.9489 45.8855 15.9595 48.3976 16.9289 51.7722 19.0244 51.7722 19.0244L51.8133 8.35125ZM60.2947 36.3228C60.2947 36.3228 52.6238 28.6234 45.3993 27.2223 36.0391 25.4352 30.2244 14.1102 30.3619 8.37088L12.1336 8.37088 11.7712 8.35125 11.7712 94.1307 0.349618 82.2175 0.349618 0.130417 60.3496 0.130417Z" fill="#FFFFFF" fill-rule="evenodd" transform="matrix(1 0 0 -1.00134 508 95.1268)"/><path d="M11.8268 8.36546 11.8268 94.1309 0.31828 82.2142 0.31828 0.130639 43.263 0.130639 43.3183 36.0375 33.6644 29.4269 33.6488 8.36546Z" fill="#FFFFFF" fill-rule="evenodd" transform="matrix(1 0 0 -1.00134 370 95.1268)"/><path d="M73.9384 8.35246C73.9659 10.8766 77.0184 14.943 79.6338 15.9522 82.1541 16.9208 85.5534 19.0137 85.5534 19.0137L85.5809 8.35246ZM10.0465 8.35246C10.117 10.8766 13.168 14.943 15.7835 15.9522 18.29 16.9208 21.703 19.0137 21.703 19.0137L21.7475 8.35246ZM94.4119 36.1413C94.4119 36.1413 86.7008 28.4426 79.4391 27.0447 70.0789 25.2369 64.4646 13.9458 64.3405 8.35246L57.7216 8.35246 57.8059 34.6461 47.6021 27.3483 47.6021 8.35246 30.5891 8.35246 30.534 36.1413C30.534 36.1413 22.7952 28.7325 15.5733 27.0447 5.68237 24.7452 0.517677 13.9458 0.491588 8.35246L0.4225 0.141028 94.4225 0.141028Z" fill="#FFFFFF" fill-rule="evenodd" transform="matrix(1 0 0 -1.00134 819 95.1268)"/><path d="M92.0261 8.34964C92.0963 10.9033 95.1336 14.938 97.751 15.9468 100.26 16.915 103.616 19.0209 103.616 19.0209L103.674 8.34964ZM10.0619 8.34964C10.1153 10.9033 13.168 14.938 15.7592 15.9468 18.2667 16.915 21.666 19.0209 21.666 19.0209L21.6797 8.34964ZM112.434 36.141C112.434 36.141 104.786 28.4329 97.5433 27.0355 88.1975 25.2284 82.6666 13.9411 82.5259 8.34964L58.2608 8.34964C54.5835 8.86242 54.1071 8.8457 51.893 10.4648 49.694 12.0383 49.4725 13.0429 49.4725 17.1394 49.4725 20.7084 49.0786 23.5519 52.0762 25.019 54.124 26.0585 53.9422 26.0585 58.0653 26.5364L75.5764 26.5364 75.5764 35.8361 50.1262 35.8361C47.2139 35.8361 44.7891 34.3293 42.6161 32.3144 41.0568 30.8819 40.0948 29.0399 39.4977 25.4286 39.0242 22.57 39.1052 15.7406 39.8733 12.9518 41.0568 8.86242 41.8234 9.24785 43.4941 8.34964L30.5399 8.34964 30.4985 8.34964 30.4268 36.141C30.4268 36.141 22.7518 28.7228 15.5776 27.0355 5.70189 24.7368 0.560329 13.9411 0.534357 8.34964L0.4764 0.140981 112.477 0.140981Z" fill="#FFFFFF" fill-rule="evenodd" transform="matrix(1 0 0 -1.00134 1068 95.1268)"/><path d="M32.1355 42.4394C33.1979 45.8567 35.5729 42.4103 37.4787 40.3323 37.4787 40.3323 31.044 39.0463 32.1355 42.4394M59.3635 56.6358C58.5492 56.8582 49.52 72.1807 49.52 72.1807 45.542 62.8901 47.198 59.8734 47.198 59.8734 58.2586 45.9481 47.0466 41.9655 47.0466 41.9655 47.0466 41.9655 45.5966 46.422 39.0801 50.5553 32.5214 54.7252 30.2418 50.4929 28.3784 41.1046 26.5151 31.7363 31.1152 32.1065 31.1152 32.1065L43.6378 31.9724C48.0154 29.4495 43.2081 24.9338 43.2081 24.9338 43.2081 24.9338 38.3764 17.9283 20.6193 9.22125 2.83501 0.535525 3.57969 21.9049 3.57969 21.9049L0.859584 26.9144C-1.47293 11.9394 7.14294-9.07345 30.4914 4.6141 53.884 18.2302 49.3958 34.5992 49.3958 34.5992 61.1997 42.4394 56.934 55.0803 56.934 55.0803 56.934 55.0803 60.1659 56.386 59.3635 56.6358" fill="#FFFFFF" fill-rule="evenodd" transform="matrix(1 0 0 -1.00134 1212 287.383)"/><path d="M10.5276 4.17177 4.89135 8.18232 0.527377 4.29505 6.30786 0.182082Z" fill="#FFFFFF" fill-rule="evenodd" transform="matrix(1 0 0 -1.00134 1270 278.371)"/><path d="M9.47267 4.21231 4.41461 8.18232 0.47267 4.28012 5.6489 0.182082Z" fill="#FFFFFF" fill-rule="evenodd" transform="matrix(1 0 0 -1.00134 1261 278.371)"/><path d="M10.5123 4.18328 4.86775 8.18351 0.512035 4.30118 6.27553 0.183277Z" fill="#FFFFFF" fill-rule="evenodd" transform="matrix(1 0 0 -1.00134 1191 281.375)"/><path d="M12.4782 5.17783 5.69275 10.1611 0.477942 5.27807 7.37186 0.161121Z" fill="#FFFFFF" fill-rule="evenodd" transform="matrix(1 0 0 -1.00134 1213 205.274)"/><path d="M13.5047 5.69095 6.15444 11.1941 0.504658 5.80943 8.00131 0.194101Z" fill="#FFFFFF" fill-rule="evenodd" transform="matrix(1 0 0 -1.00134 1152 282.376)"/><path d="M12.3961 5.71937 5.61283 11.1794 0.395823 5.81539 7.27701 0.179179Z" fill="#FFFFFF" fill-rule="evenodd" transform="matrix(1 0 0 -1.00134 810 214.286)"/><path d="M12.3715 5.18837 5.57918 10.1754 0.37154 5.28903 7.28587 0.175185Z" fill="#FFFFFF" fill-rule="evenodd" transform="matrix(1 0 0 -1.00134 689 275.367)"/><path d="M10.5078 4.22044 4.84287 8.18344 0.507548 4.29753 6.2879 0.183446Z" fill="#FFFFFF" fill-rule="evenodd" transform="matrix(1 0 0 -1.00134 1181 281.375)"/><path d="M10.4901 4.7108 4.86182 9.20679 0.489867 4.82114 6.28019 0.206525Z" fill="#FFFFFF" fill-rule="evenodd" transform="matrix(1 0 0 -1.00134 1097 284.379)"/><path d="M10.4872 4.18455 4.83591 8.18371 0.487221 4.30219 6.25397 0.183714Z" fill="#FFFFFF" fill-rule="evenodd" transform="matrix(1 0 0 -1.00134 1087 283.378)"/><path d="M10.4832 4.17419 4.83163 8.1842 0.482936 4.24234 6.20482 0.183963Z" fill="#FFFFFF" fill-rule="evenodd" transform="matrix(1 0 0 -1.00134 1068 283.378)"/><path d="M9.43345 4.18961 4.33973 8.18309 0.43345 4.27985 5.58896 0.182857Z" fill="#FFFFFF" fill-rule="evenodd" transform="matrix(1 0 0 -1.00134 1059 283.378)"/><path d="M10.4823 4.18346 4.82912 8.16713 0.482305 4.29473 6.25278 0.166894Z" fill="#FFFFFF" fill-rule="evenodd" transform="matrix(1 0 0 -1.00134 1059 206.275)"/><path d="M10.4796 4.18839 4.8199 8.16751 0.47934 4.26217 6.25287 0.16727Z" fill="#FFFFFF" fill-rule="evenodd" transform="matrix(1 0 0 -1.00134 1049 206.275)"/><path d="M9.3773 4.20088 4.29393 8.1699 0.377073 4.29167 5.56381 0.169665Z" fill="#FFFFFF" fill-rule="evenodd" transform="matrix(1 0 0 -1.00134 783 214.286)"/><path d="M9.37634 4.19219 4.27837 8.16907 0.376115 4.29771 5.56483 0.168835Z" fill="#FFFFFF" fill-rule="evenodd" transform="matrix(1 0 0 -1.00134 773 214.286)"/><path d="M12.407 4.67676 5.63405 9.16359 0.407043 4.75535 7.32989 0.163591Z" fill="#FFFFFF" fill-rule="evenodd" transform="matrix(1 0 0 -1.00134 670 217.29)"/><path d="M12.4052 5.2018 5.65617 10.18 0.404937 5.30684 7.31993 0.179741Z" fill="#FFFFFF" fill-rule="evenodd" transform="matrix(1 0 0 -1.00134 663 207.276)"/><path d="M11.3703 4.66999 5.12876 9.16335 0.37029 4.7615 6.72196 0.163354Z" fill="#FFFFFF" fill-rule="evenodd" transform="matrix(1 0 0 -1.00134 659 217.29)"/><path d="M10.3609 4.21852 4.71183 8.18303 0.360878 4.29995 6.11376 0.183032Z" fill="#FFFFFF" fill-rule="evenodd" transform="matrix(1 0 0 -1.00134 513 281.375)"/><path d="M10.3599 4.18639 4.6914 8.18341 0.359652 4.29082 6.11485 0.183413Z" fill="#FFFFFF" fill-rule="evenodd" transform="matrix(1 0 0 -1.00134 503 281.375)"/><path d="M9.301 4.21302 4.22414 8.18225 0.30077 4.28663 5.48249 0.182012Z" fill="#FFFFFF" fill-rule="evenodd" transform="matrix(1 0 0 -1.00134 395 279.372)"/><path d="M9.29939 4.20614 4.21524 8.18263 0.299388 4.28285 5.48855 0.182628Z" fill="#FFFFFF" fill-rule="evenodd" transform="matrix(1 0 0 -1.00134 385 279.372)"/><path d="M117.07 66.1843C117.07 66.1843 128.03 51.5433 121.31 40.6895 114.616 29.8146 103.18 33.331 100.615 41.1055 100.615 41.1055 87.8687 28.9387 75.4159 28.8412 75.4159 28.8412 61.5691 28.2851 58.8083 38.9803 56.0901 49.7225 56.5198 53.3485 56.5198 53.3485 56.5198 53.3485 51.4597 47.2544 48.6409 46.3815 48.6409 46.3815 53.9685 33.331 44.8497 24.5754 44.8497 24.5754 21.6044 2.73395 12.7211 0.768722 12.7211 0.768722 4.4922-0.745689 0.490145 1.10078 0.490145 1.10078 29.3274 16.5357 41.8795 30.5171 41.8795 30.5171 52.1981 38.3905 40.3585 44.864 40.3585 44.864 38.1832 44.6356 38.6418 51.2386 39.0621 57.8521 40.2468 54.8583 41.0571 54.1697 41.8367 53.5116 47.8474 46.6099 58.1937 62.6542 58.1937 62.6542 58.0117 38.3267 75.7094 39.0486 75.7094 39.0486 94.1852 38.4104 103.096 49.4804 103.096 49.4804 103.793 33.5594 114.685 41.433 125.577 49.2731 117.6 53.6685 115.605 55.9629 113.61 58.2696 114.434 59.8404 117.07 66.1843" fill="#FFFFFF" fill-rule="evenodd" transform="matrix(1 0 0 -1.00134 1111 282.376)"/><path d="M5.46133 17.1788C5.46133 17.1788-4.17241 7.13891 3.35828 0.460318 3.35828 0.460318 5.15786-1.18705 8.14696 3.48591 8.14696 3.48591 9.98763 6.29847 5.03193 9.88691 5.03193 9.88691 2.84525 11.2947 5.46133 17.1788" fill="#FFFFFF" fill-rule="evenodd" transform="matrix(1 0 0 -1.00134 1184 221.295)"/><path d="M5.44484 19.1631C5.44484 19.1631-4.17699 7.93855 3.31465 0.47555 3.31465 0.47555 5.07892-1.36136 8.14337 3.8711 8.14337 3.8711 9.93435 7.00243 4.99716 11.0029 4.99716 11.0029 2.81191 12.6004 5.44484 19.1631" fill="#FFFFFF" fill-rule="evenodd" transform="matrix(1 0 0 -1.00134 1126 194.259)"/><path d="M4.14942 15.1912C4.14942 15.1912-3.06355 6.30808 2.57113 0.446443 2.57113 0.446443 3.90485-1.02991 6.17691 3.11496 6.17691 3.11496 7.53882 5.60441 3.80782 8.7582 3.80782 8.7582 2.22953 10.0115 4.14942 15.1912" fill="#FFFFFF" fill-rule="evenodd" transform="matrix(1 0 0 -1.00134 923 281.375)"/><path d="M3.61529 15.1723C3.61529 15.1723-2.43964 6.3184 2.25123 0.416976 2.25123 0.416976 3.37305-1.02847 5.26471 3.10099 5.26471 3.10099 6.3996 5.60112 3.32811 8.71348 3.32811 8.71348 1.9792 9.97232 3.61529 15.1723" fill="#FFFFFF" fill-rule="evenodd" transform="matrix(1 0 0 -1.00134 937 193.258)"/><path d="M4.1461 14.1797C4.1461 14.1797-3.08074 5.92063 2.53629 0.421744 2.53629 0.421744 3.87258-0.966468 6.149 2.90427 6.149 2.90427 7.52719 5.2161 3.80384 8.20166 3.80384 8.20166 2.16862 9.36336 4.1461 14.1797" fill="#FFFFFF" fill-rule="evenodd" transform="matrix(1 0 0 -1.00134 816 284.379)"/><path d="M4.73465 13.1826C4.73465 13.1826-3.70785 5.51473 2.87913 0.404955 2.87913 0.404955 4.48009-0.880718 7.07311 2.72835 7.07311 2.72835 8.68654 4.8623 4.33875 7.61268 4.33875 7.61268 2.42577 8.68924 4.73465 13.1826" fill="#FFFFFF" fill-rule="evenodd" transform="matrix(1 0 0 -1.00134 591 278.371)"/><path d="M10.0701 10.7738C10.0701 10.7738 6.37641 14.8159 9.65785 18.1289 12.95 21.454 18.249 16.3668 13.7624 8.54163 13.7624 8.54163 8.18785-1.63265 0.488816 0.442288 0.488816 0.442288 8.97332 4.05486 10.0701 10.7738" fill="#FFFFFF" fill-rule="evenodd" transform="matrix(1 0 0 -1.00134 1236 196.262)"/><path d="M9.95325 8.57214C9.95325 8.57214 4.60869 6.81614 3.70127 7.16276 2.83384 7.52154-0.960677 11.7254 5.69804 15.7232 5.69804 15.7232 11.8657 17.8032 14.7116 12.9288 14.7116 12.9288 17.6155 7.83956 11.9069 2.91674 6.24114-2.01228 0.450099 1.18172 0.450099 1.18172 0.450099 1.18172 9.21401 1.21199 9.95325 8.57214" fill="#FFFFFF" fill-rule="evenodd" transform="matrix(1 0 0 -1.00134 1012 190.254)"/><path d="M10.0142 8.55748C10.0142 8.55748 4.64312 6.80239 3.734 7.15513 2.82465 7.48687-0.964167 11.7075 5.70725 15.721 5.70725 15.721 11.8742 17.8064 14.7583 12.9253 14.7583 12.9253 17.6378 7.7912 11.9571 2.87984 6.30825-2.02388 0.487999 1.20941 0.487999 1.20941 0.487999 1.20941 9.24301 1.21562 10.0142 8.55748" fill="#FFFFFF" fill-rule="evenodd" transform="matrix(1 0 0 -1.00134 1187 188.251)"/><path d="M9.96085 8.56544C9.96085 8.56544 4.64852 6.82201 3.72984 7.17504 2.82199 7.50827-0.968262 11.7219 5.68153 15.7147 5.68153 15.7147 11.8423 17.8217 14.7124 12.9186 14.7124 12.9186 17.5856 7.81263 11.8974 2.87932 6.25315-2.01917 0.4378 1.20721 0.4378 1.20721 0.4378 1.20721 9.19356 1.23607 9.96085 8.56544" fill="#FFFFFF" fill-rule="evenodd" transform="matrix(1 0 0 -1.00134 957 193.258)"/><path d="M9.90627 9.08793C9.90627 9.08793 4.574 7.21035 3.68199 7.60576 2.77481 7.96599-1.03513 12.4378 5.63587 16.6977 5.63587 16.6977 11.7898 18.9287 14.6937 13.743 14.6937 13.743 17.5534 8.29533 11.8893 3.07445 6.22187-2.1563 0.415402 1.28674 0.415402 1.28674 0.415402 1.28674 9.16727 1.31737 9.90627 9.08793" fill="#FFFFFF" fill-rule="evenodd" transform="matrix(1 0 0 -1.00134 848 193.258)"/><path d="M9.93384 8.57113C9.93384 8.57113 4.57547 6.81637 3.66852 7.14801 2.76133 7.52781-1.01848 11.7337 5.66454 15.7168 5.66454 15.7168 11.7771 17.8167 14.6789 12.922 14.6789 12.922 17.553 7.82464 11.872 2.92253 6.20919-2.02822 0.405659 1.19662 0.405659 1.19662 0.405659 1.19662 9.1401 1.23143 9.93384 8.57113" fill="#FFFFFF" fill-rule="evenodd" transform="matrix(1 0 0 -1.00134 802 192.256)"/><path d="M9.88634 8.54187C9.88634 8.54187 4.55131 6.83326 3.62967 7.17808 2.73527 7.52266-1.06512 11.7143 5.61258 15.7292 5.61258 15.7292 11.7574 17.7993 14.6484 12.915 14.6484 12.915 17.5149 7.81914 11.8555 2.9 6.18361-2.01128 0.374252 1.18996 0.374252 1.18996 0.374252 1.18996 9.13133 1.25949 9.88634 8.54187" fill="#FFFFFF" fill-rule="evenodd" transform="matrix(1 0 0 -1.00134 650 194.259)"/><path d="M11.1146 9.63124C11.1146 9.63124 5.07631 7.64747 4.04054 8.04548 3.02979 8.43119-1.2749 13.1629 6.28499 17.6741 6.28499 17.6741 13.2592 20.0055 16.5283 14.5252 16.5283 14.5252 19.7661 8.7711 13.3605 3.24336 6.9374-2.29668 0.346318 1.33601 0.346318 1.33601 0.346318 1.33601 10.2767 1.37265 11.1146 9.63124" fill="#FFFFFF" fill-rule="evenodd" transform="matrix(1 0 0 -1.00134 489 195.26)"/><path d="M25.0283 18.4742 0.474547 0.164758 1.92101 4.83275 26.4748 23.1648Z" fill="#FFFFFF" fill-rule="evenodd" transform="matrix(1 0 0 -1.00134 1147 197.263)"/><path d="M25.9218 18.4729 0.412435 0.165081 1.87513 4.84253 27.4127 23.1653Z" fill="#FFFFFF" fill-rule="evenodd" transform="matrix(1 0 0 -1.00134 769 199.266)"/><path d="M33.4301 24.8141 0.364942 0.168416 2.30334 6.46866 35.3652 31.1687Z" fill="#FFFFFF" fill-rule="evenodd" transform="matrix(1 0 0 -1.00134 603 213.284)"/><path d="M31.2004 19.669 0.323425 0.17317 2.4309 5.70087 33.3234 25.1732Z" fill="#FFFFFF" fill-rule="evenodd" transform="matrix(1 0 0 -1.00134 381 210.28)"/><path d="M28.4995 14.1596 0.335195 0.190192 3.18627 6.20702 31.3354 20.1904Z" fill="#FFFFFF" fill-rule="evenodd" transform="matrix(1 0 0 -1.00134 456 285.38)"/><path d="M25.3252 12.772 0.469206 0.18253 2.58744 4.60527 27.4692 17.1825Z" fill="#FFFFFF" fill-rule="evenodd" transform="matrix(1 0 0 -1.00134 1110 270.36)"/><path d="M10.7162 8.1208 0.485528 0.185667 1.24132 3.27236 11.4855 11.1859Z" fill="#FFFFFF" fill-rule="evenodd" transform="matrix(1 0 0 -1.00134 1219 265.354)"/><path d="M14.3701 10.9698 0.394151 0.17337 1.44288 4.35473 15.3944 15.1734Z" fill="#FFFFFF" fill-rule="evenodd" transform="matrix(1 0 0 -1.00134 736 194.259)"/><path d="M19.4547 14.0771C19.4547 14.0771 17.6732 17.7306 15.81 14.7367 14.6949 12.9709 14.3968 11.9494 13.9064 10.404 13.5517 9.31723 13.3071 7.53787 12.8866 5.16178 12.8866 5.16178 9.04095 16.9238 3.87127 19.4087-1.28338 21.8652 0.879375 17.6162 1.04206 16.6155 1.19253 15.6195 2.86349 10.8506 5.0131 11.095 7.73362 11.3866 9.55505 7.75545 9.54026 4.48581 9.51491-0.550996 11.0518-0.239859 13.389 0.76061 14.586 1.25651 14.8306 5.40445 15.6459 8.96436 16.0811 10.7569 16.448 11.8764 17.0053 12.7252 18.5974 14.9137 18.9507 13.955 19.4547 14.0771" fill="#FFFFFF" fill-rule="evenodd" transform="matrix(1 0 0 -1.00134 1083 194.259)"/><path d="M20.4519 14.0736C20.4519 14.0736 18.5745 17.7395 16.6136 14.7391 15.4677 12.9881 15.1397 11.9739 14.6232 10.4194 14.2354 9.33391 13.978 7.51422 13.5918 5.14814 13.5918 5.14814 9.48183 16.9459 4.04079 19.4133-1.38764 21.8776 0.918418 17.6056 1.04722 16.6122 1.20272 15.5938 2.97973 10.8675 5.25587 11.0999 8.14907 11.4111 10.0408 7.76442 10.0109 4.49741 9.97009-0.541453 11.6012-0.228869 14.0942 0.755314 15.3248 1.26323 15.5948 5.41477 16.471 8.97935 16.8994 10.7439 17.2433 11.8862 17.8727 12.7304 19.5352 14.9492 19.9214 13.9514 20.4519 14.0736" fill="#FFFFFF" fill-rule="evenodd" transform="matrix(1 0 0 -1.00134 958 223.298)"/><path d="M17.3945 13.4323C17.3945 13.4323 15.7884 16.9148 14.1268 14.0233 13.1446 12.3574 12.8446 11.4341 12.437 9.92122 12.1384 8.8968 11.8787 7.19452 11.5382 4.94654 11.5382 4.94654 8.05263 16.1212 3.42191 18.4717-1.15333 20.8131 0.78119 16.7772 0.905081 15.8113 1.02615 14.866 2.52341 10.3828 4.48332 10.5916 6.89577 10.8667 8.54373 7.42678 8.51387 4.31099 8.49013-0.505608 9.8635-0.179987 11.9741 0.757291 13.0506 1.21112 13.252 5.17731 14.0029 8.53484 14.3717 10.2595 14.6553 11.3345 15.1868 12.1122 16.6182 14.2115 16.9318 13.2743 17.3945 13.4323" fill="#FFFFFF" fill-rule="evenodd" transform="matrix(1 0 0 -1.00134 788 282.376)"/><path d="M17.3158 13.3924C17.3158 13.3924 15.7221 16.8756 14.0612 14.0204 13.0958 12.3374 12.8228 11.3789 12.3483 9.89969 12.0753 8.88259 11.8304 7.13637 11.4768 4.92182 11.4768 4.92182 7.99113 16.1179 3.3773 18.4637-1.25157 20.8 0.709205 16.7458 0.831635 15.811 0.968871 14.8713 2.4371 10.3473 4.39928 10.5705 6.8345 10.8219 8.48061 7.39743 8.46698 4.27166 8.4268-0.511662 9.80103-0.179605 11.8842 0.723651 12.96 1.20617 13.2049 5.15897 13.9256 8.52986 14.3075 10.224 14.6076 11.3203 15.1252 12.1 16.5399 14.2212 16.8517 13.2833 17.3158 13.3924" fill="#FFFFFF" fill-rule="evenodd" transform="matrix(1 0 0 -1.00134 405 224.299)"/><path d="M19.3915 14.0888C19.3915 14.0888 17.6124 17.7668 15.7475 14.7413 14.6364 12.9662 14.3366 11.9711 13.8544 10.4326 13.5268 9.33031 13.2707 7.5255 12.8448 5.14468 12.8448 5.14468 8.98524 16.9431 3.80398 19.408-1.36302 21.8855 0.840523 17.6189 0.956034 16.6393 1.11357 15.6506 2.79118 10.8857 4.95589 11.1474 7.67432 11.4183 9.49865 7.7668 9.48464 4.49215 9.45515-0.535802 10.9642-0.222903 13.327 0.750368 14.5238 1.2408 14.7799 5.40927 15.5897 8.94728 16.0191 10.7504 16.3732 11.9026 16.9569 12.7185 18.538 14.9328 18.8936 13.9394 19.3915 14.0888" fill="#FFFFFF" fill-rule="evenodd" transform="matrix(1 0 0 -1.00134 689 198.264)"/><path d="M15.3271 15.9716C15.3271 15.9716 13.3182 20.1312 11.2264 16.6997 10.0168 14.7163 9.65933 13.5795 9.10878 11.812 8.70762 10.6008 8.29602 7.52941 7.8571 4.84865 7.8571 4.84865 6.72892 17.5871 3.67477 22.9245 1.3341 27.0628 0.275275 24.4215 0.412556 23.3 0.565038 22.1692-0.454596 13.5051 1.98274 13.7604 5.03523 14.0795 5.06231 9.10398 5.03523 5.37901 4.99462-0.332194 5.95677-0.463109 8.53115 0.848675 9.61872 1.4214 10.1555 6.12979 11.0739 10.1647 11.5295 12.2026 11.914 13.5051 12.5762 14.4413 14.3497 16.9488 14.763 15.8472 15.3271 15.9716" fill="#FFFFFF" fill-rule="evenodd" transform="matrix(1 0 0 -1.00134 446 207.276)"/><path d="M12.4437 9.21039C12.4437 9.21039 11.331 11.6011 10.1473 9.64948 9.44724 8.49733 9.27105 7.85562 8.96822 6.85349 8.7484 6.14383 8.55727 4.95004 8.29381 3.40507 8.29381 3.40507 5.89187 11.0861 2.59426 12.6744-0.662793 14.3027 0.723974 11.5162 0.808395 10.8681 0.918188 10.2418 1.94664 7.12259 3.32156 7.28503 5.0683 7.47523 6.2082 5.11856 6.19303 2.99058 6.15105-0.304902 7.15532-0.0728162 8.63861 0.564264 9.3659 0.885971 9.54494 3.58139 10.0524 5.8947 10.3265 7.02225 10.5464 7.78451 10.8897 8.34902 11.894 9.75931 12.1276 9.14854 12.4437 9.21039" fill="#FFFFFF" fill-rule="evenodd" transform="matrix(1 0 0 -1.00134 1014 234.312)"/><path d="M7.43632 3.21939C7.43632 3.21939 4.51769 6.37681 3.67425 10.1866 3.67425 10.1866 1.02641 8.76738 0.480591 6.52393 0.290568 5.65632 0.739135 4.70209 1.25952 3.62075 2.86847 0.243254 3.80893-0.99473 5.35054 1.51515 7.04168 4.2434 7.43632 3.21939 7.43632 3.21939" fill="#FFFFFF" fill-rule="evenodd" transform="matrix(1 0 0 -1.00134 997 276.368)"/><path d="M45.5717 21.1921C45.5717 21.1921 48.3038 15.2893 44.0803 12.2797 44.0803 12.2797 40.6515 9.95705 38.2816 12.8123 38.2816 12.8123 34.477 7.32715 29.0539 12.141 29.0539 12.141 26.8232 12.1584 23.7839 7.32715 23.7839 7.32715 17.4702-2.99245 0.440834 1.18939 0.440834 1.18939 17.9303 2.19489 25.6266 12.7051 25.6266 12.7051 28.9716 17.0147 35.0742 14.1486 36.4968 14.12 36.8452 15.2027 37.6826 16.8147 38.63 17.9934 39.1173 18.1525 42.5203 17.4701 42.9512 17.5095 44.8046 16.9375 45.5717 21.1921" fill="#FFFFFF" fill-rule="evenodd" transform="matrix(1 0 0 -1.00134 940 283.378)"/><path d="M38.6255 17.1831C38.6255 17.1831 40.9474 12.4139 37.3748 9.97008 37.3748 9.97008 34.4726 8.06943 32.4707 10.3753 32.4707 10.3753 29.2168 5.95403 24.6601 9.83518 24.6601 9.83518 22.742 9.85904 20.1569 5.94812 20.1569 5.94812 14.8063-2.38686 0.367069 0.987062 0.367069 0.987062 15.2087 1.80001 21.7274 10.2987 21.7274 10.2987 24.5627 13.8092 29.7316 11.4509 30.929 11.4509 31.2186 12.3539 31.9695 13.6395 32.7344 14.5758 33.1792 14.7183 36.0402 14.1782 36.4303 14.2006 37.9873 13.7478 38.6255 17.1831" fill="#FFFFFF" fill-rule="evenodd" transform="matrix(1 0 0 -1.00134 601 283.378)"/><path d="M13.4331 58.3838C13.4331 58.3838 12.5816 64.8677 3.95896 82.175 3.95896 82.175-0.327733 77.4398 0.55175 75.198 0.55175 75.198 2.24274 69.7201 3.39249 67.1661 3.39249 67.1661 7.37224 28.4515 7.31571 22.4927 7.31571 22.4927 7.46568 4.40315 5.43644 0.174976 5.43644 0.174976 13.4744 4.88254 10.7526 33.3738 8.0471 61.8344 8.26504 62.0976 8.26504 62.0976 8.26504 62.0976 11.4022 59.0856 13.4331 58.3838" fill="#FFFFFF" fill-rule="evenodd" transform="matrix(1 0 0 -1.00134 993 258.344)"/><path d="M4.69625 23.1667C4.69625 23.1667 11.405 13.7952 6.82072 0.166434 6.82072 0.166434 5.07087 11.6725 1.45845 13.732-2.11128 15.7927 4.69625 23.1667 4.69625 23.1667" fill="#FFFFFF" fill-rule="evenodd" transform="matrix(1 0 0 -1.00134 899 199.266)"/><path d="M3.05007 14.1628C3.05007 14.1628 7.24227 8.47148 4.34371 0.162535 4.34371 0.162535 3.27369 7.15527 1.02438 8.41785-1.23901 9.68651 3.05007 14.1628 3.05007 14.1628" fill="#FFFFFF" fill-rule="evenodd" transform="matrix(1 0 0 -1.00134 600 191.255)"/><path d="M9.09073 11.11 10.4914 13.3421C10.4914 13.3421 14.9807 7.6865 10.2546 2.0281 5.0227-4.27578 0.900914 7.5015 0.900914 7.5015 0.900914 7.5015-2.38315 20.3378 8.17892 32.1724 8.17892 32.1724 2.6105 23.8379 3.85739 13.6355 4.21088 10.925 5.24714 9.91878 6.83082 8.75006 6.83082 8.75006 12.2871 5.27988 9.09073 11.11" fill="#FFFFFF" fill-rule="evenodd" transform="matrix(1 0 0 -1.00134 852 247.33)"/><path d="M6.9583 6.99317 7.99935 8.40748C7.99935 8.40748 11.3608 4.90469 7.81264 1.3466 3.92291-2.58157 0.809671 4.7581 0.809671 4.7581 0.809671 4.7581-1.67177 12.7625 6.21604 20.1902 6.21604 20.1902 2.04945 14.9896 3.00758 8.61856 3.2879 6.93016 4.09115 6.28279 5.23946 5.55033 5.23946 5.55033 9.36164 3.38149 6.9583 6.99317" fill="#FFFFFF" fill-rule="evenodd" transform="matrix(1 0 0 -1.00134 758 285.38)"/><path d="M10.2437 8.32106 11.3407 6.40751C11.3407 6.40751 11.6176 1.84022 9.10434 0.744644 4.48437-1.26434 2.20733 2.37896 0.737613 5.05525-0.719646 7.73602 2.04131 20.3049 7.09177 26.1648 7.09177 26.1648 2.72287 15.6272 3.65237 9.04949 3.90032 7.47018 5.10963 2.44031 8.32696 3.7613 8.32696 3.7613 10.507 4.64627 10.2437 8.32106" fill="#FFFFFF" fill-rule="evenodd" transform="matrix(1 0 0 -1.00134 544 213.284)"/><path d="M4.09568 11.1857C4.09568 11.1857 3.69759 5.89722 2.80365 5.69342 1.87042 5.47875 0.400521 7.54865 0.400521 7.54865 0.400521 7.54865-0.186689 0.696163 2.76591 0.205492 5.70571-0.291215 6.12742 8.62513 4.09568 11.1857" fill="#FFFFFF" fill-rule="evenodd" transform="matrix(1 0 0 -1.00134 710 276.368)"/><path d="M3.72722 16.1835C3.72722 16.1835-1.98566 13.2971 3.32601 11.2128 3.32601 11.2128-1.8691 2.64545 1.46856 0.718453 5.47932-1.57921 8.35011 4.26805 8.35011 4.26805 8.35011 4.26805 3.40289 0.374959 2.81923 3.198 2.18155 6.13903 3.61067 11.3158 5.66289 12.4433 5.66289 12.4433-0.230864 11.6743 3.72722 16.1835" fill="#FFFFFF" fill-rule="evenodd" transform="matrix(1 0 0 -1.00134 667 278.371)"/><path d="M1.14739 17.2604C1.14739 17.2604 0.843074 21.8333 2.69885 21.0919 5.0791 20.1303 5.97205 17.6614 4.86421 16.8046 3.7689 15.9658 2.18953 16.1529 1.91049 15.6529 1.60639 15.1349 1.51564 11.2441 2.18953 8.32995 2.87748 5.43136 2.83969 2.71484 1.59233 0.172982 1.59233 0.172982 1.75844 6.45083 0.728819 12.0841-0.355291 17.71 1.14739 17.2604 1.14739 17.2604" fill="#FFFFFF" fill-rule="evenodd" transform="matrix(1 0 0 -1.00134 631 228.304)"/><path d="M2.66177 18.2664C2.66177 18.2664 1.33401 25.3829 4.43204 24.0112 8.40211 22.2212 10.6563 18.16 8.51095 16.5847 6.75249 15.2977 4.04394 16.2267 3.50719 15.7142 2.97044 15.2066 2.35287 13.5941 3.36015 10.2089 4.51447 6.38211 3.9233 2.72815 1.44122 0.186623 1.44122 0.186623 2.51473 5.85286 0.812077 12.3844-0.918594 19.1199 2.66177 18.2664 2.66177 18.2664" fill="#FFFFFF" fill-rule="evenodd" transform="matrix(1 0 0 -1.00134 558 282.376)"/><path d="M129.051 66.6247C129.051 66.6247 137.866 58.2972 130.593 45.53 123.292 32.8025 117.781 43.3958 117.781 43.3958 117.781 43.3958 111.313 35.6479 107.941 38.6542 107.941 38.6542 106.164 40.0462 101.987 44.2299 101.987 44.2299 97.976 42.1788 96.1715 40.1643 96.1715 40.1643 85.8702 30.6195 75.3502 39.4313 75.3502 39.4313 73.3659 41.7524 70.6029 46.1386 70.6029 46.1386 61.6924 31.7875 55.3475 40.0875 55.3475 40.0875 50.9912 45.3658 47.0334 52.0807 47.0334 52.0807 44.523 58.2757 38.429 51.0029 38.429 51.0029 28.5875 43.5568 33.3636 40.2898 33.3636 40.2898 41.7034 34.7249 49.5197 32.5939 49.5197 32.5939 64.0797 26.9493 42.9254 9.07066 42.9254 9.07066 4.2832-20.3195 0.468695 27.797 0.468695 27.797 0.966145 40.1428 6.80902 45.7813L6.16996 40.3113C6.16996 40.3113 1.67374 29.8667 6.01948 20.4399 10.3482 10.9994 14.2756 1.79187 38.359 13.2498 38.359 13.2498 45.7874 17.9578 47.4094 21.8518 49.0465 25.7397 40.6505 26.0263 40.6505 26.0263 40.6505 26.0263 25.6752 28.4655 27.562 38.7599 29.4212 49.0314 30.0588 51.5411 40.3174 61.5212 40.3174 61.5212 48.8124 69.8948 53.2659 52.6893 53.2659 52.6893 55.988 43.2901 63.0101 46.6399 63.0101 46.6399 71.0318 48.8566 66.7031 59.45 66.7031 59.45 61.8019 72.987 62.2188 74.819 62.6358 76.6174 65.6607 81.1842 65.6607 81.1842 65.6607 81.1842 71.4641 53.6842 80.8202 46.6966 80.8202 46.6966 92.7844 41.1102 104.248 53.3745 104.248 53.3745 105.179 45.996 109.371 45.7461 109.371 45.7461 116.005 45.4518 120.877 57.9968 120.877 57.9968 118.587 45.4103 123.403 47.2147 123.403 47.2147 133.631 49.6478 128.262 53.5707 128.262 53.5707 124.61 55.8566 126.151 59.7858 126.151 59.7858 128.274 63.7013 129.051 66.6247" fill="#FFFFFF" fill-rule="evenodd" transform="matrix(1 0 0 -1.00134 1009 289.386)"/><path d="M98.5119 50.6484C98.5119 50.6484 106.617 40.2402 99.5371 27.9517 99.5371 27.9517 93.0801 17.6356 87.8018 30.0559 87.8018 30.0559 81.4557 22.0265 77.4229 24.8355 77.4229 24.8355 73.987 25.8937 71.7693 30.3907 71.7693 30.3907 53.7015 18.5155 46.8435 20.8208 46.8435 20.8208 41.2992 20.7303 34.2209 34.1889 34.2209 34.1889 33.1258 9.24991 17.0661 1.66887 17.0661 1.66887 9.11131-1.67782 0.437984 1.65509 0.437984 1.65509 27.9432 11.2095 31.0342 28.3863 34.1649 45.5356 28.373 77.0511 27.6683 79.1384 26.9452 81.1902 27.0835 81.8984 28.607 86.34 30.1594 90.823 32.4194 93.1775 32.4194 93.1775 32.4194 93.1775 34.3728 56.1897 36.2563 47.7411 36.2563 47.7411 41.9113 20.701 62.3473 31.005L75.2478 38.7887C74.8739 35.8752 73.2942 28.4509 79.2806 30.4951 84.6699 32.3382 90.5586 40.8545 90.5586 40.8545 90.5586 40.8545 89.5896 31.2447 92.6093 31.7499 95.5896 32.2121 101.311 35.2439 96.4067 40.6378 96.4067 40.6378 94.6189 42.3841 95.8508 44.9459 97.043 47.5031 98.5119 50.6484 98.5119 50.6484" fill="#FFFFFF" fill-rule="evenodd" transform="matrix(1 0 0 -1.00134 893 278.371)"/><path d="M2.3301 77.1777C2.3301 77.1777 12.7159 59.8995 14.2857 58.0794 15.8005 56.3445 8.79315 59.1441 8.79315 59.1441 8.79315 59.1441 12.9095 45.9217 25.4197 33.9684 37.9604 22.0393 43.6873 9.015 43.4099 0.177738 43.4099 0.177738 30.9393 21.6507 21.599 28.7929 21.599 28.7929 11.0335 36.8288 4.80516 61.4713L1.44165 65.8183C1.44165 65.8183-1.36845 67.1817 2.3301 77.1777" fill="#FFFFFF" fill-rule="evenodd" transform="matrix(1 0 0 -1.00134 877 253.338)"/><path d="M49.1622 38.6794C49.1622 38.6794 48.2748 43.2507 49.8141 44.06 50.7136 44.5419 56.0795 41.4226 56.3561 39.4675 56.7163 36.9706 53.9444 37.9468 49.1622 38.6794M58.7541 45.4904C57.0217 47.7577 55.8971 48.0162 53.5844 49.2584 44.3238 54.0731 45.5727 38.5479 45.5727 38.5479 45.5727 38.5479 45.8068 37.6285 44.5044 37.1864 37.9047 34.9205 22.6157 14.9498 22.6157 14.9498 11.8871 2.19217 5.49557 9.29534 5.49557 9.29534-4.29087 23.6164 15.1286 37.1084 15.1286 37.1084-8.00787 25.8485 3.07038 3.14214 3.07038 3.14214 12.9935-6.89983 29.103 11.5444 31.8474 15.271 34.5782 19.0436 40.1796 28.2214 48.2064 32.3443 49.2869 32.944 49.1332 33.091 51.7819 33.5362 52.0464 33.6783 57.4366 33.224 59.6127 34.9894 63.4104 37.9957 60.2782 43.4741 58.7541 45.4904" fill="#FFFFFF" fill-rule="evenodd" transform="matrix(1 0 0 -1.00134 845 286.382)"/><path d="M8.86971 65.3962C8.86971 65.3962 10.4003 71.2507 3.50187 83.178 3.50187 83.178-0.097896 78.4216 0.466137 76.3316 1.01826 74.2401 1.59754 73.2375 1.59754 73.2375 1.59754 73.2375 0.27106 50.1607 2.50814 37.2138 4.68757 24.9188 6.5102 7.57659 4.21882 0.178002 4.21882 0.178002 13.2407 9.38809 7.48869 40.4185 7.48869 40.4185 4.99174 63.2139 5.76443 68.5317 5.76443 68.5317 7.25574 67.2968 8.86971 65.3962" fill="#FFFFFF" fill-rule="evenodd" transform="matrix(1 0 0 -1.00134 828 260.347)"/><path d="M8.85831 65.4061C8.85831 65.4061 10.3628 71.2266 3.4526 83.178 3.4526 83.178-0.175023 78.3817 0.458632 76.3073 1.01061 74.2559 1.58973 73.2116 1.58973 73.2116 1.58973 73.2116 0.237889 50.1361 2.51509 37.2253 4.69253 24.8925 6.47228 7.55122 4.19508 0.17775 4.19508 0.17775 13.1906 9.35197 7.49432 40.4299 7.49432 40.4299 4.95566 63.1748 5.74195 68.5202 5.74195 68.5202 7.21762 67.2914 8.85831 65.4061" fill="#FFFFFF" fill-rule="evenodd" transform="matrix(1 0 0 -1.00134 723 259.346)"/><path d="M69.1436 28.6294C69.1436 28.6294 76.982 18.2539 71.4097 6.8711 65.8639-4.49024 55.9709 3.13719 55.9709 3.13719 55.9709 3.13719 53.032 7.00587 52.4381 11.1104 52.4381 11.1104 44.9098-0.655068 28.1936 0.217472 11.4604 1.0565 6.04264 9.83976 6.32324 24.237 6.59168 38.6297 3.42618 62.135 0.876041 69.0336 0.876041 69.0336-1.24652 71.4357 3.5666 80.1714 3.5666 80.1714 9.99648 68.2512 9.74334 34.3355 9.74334 34.3355 9.39157 9.61626 23.8433 8.64415 26.8993 8.42209 29.98 8.39292 32.527 8.56892 42.6036 9.21049 48.6956 12.0613 56.3365 19.6518 56.3365 19.6518 51.2149 6.84361 62.6012 7.24167 73.9985 7.64575 67.7073 18.0229 65.8918 19.2031 64.062 20.425 65.9195 23.4899 69.1436 28.6294" fill="#FFFFFF" fill-rule="evenodd" transform="matrix(1 0 0 -1.00134 754 257.343)"/><path d="M38.3336 66.1846C38.3336 66.1846 46.9764 55.2436 47.5179 49.4291L46.0429 49.649C46.0429 49.649 53.8925 37.333 40.8812 22.1878 40.8812 22.1878 27.9824 8.37058 18.1727 1.85716 18.1727 1.85716 10.4497-1.12533 0.389873 0.874617 0.389873 0.874617 38.1124 16.4339 44.7357 35.9077 44.7357 35.9077 47.7422 38.9294 38.6555 48.3632 38.6555 48.3632 35.0801 52.1112 36.1525 57.2011 37.2491 62.2788 37.0951 61.7723 38.3336 66.1846" fill="#FFFFFF" fill-rule="evenodd" transform="matrix(1 0 0 -1.00134 707 287.383)"/><path d="M88.8365 24.6956C92.341 25.874 95.4757 25.8603 96.5507 26.019 97.5981 26.193 100.763 25.9762 98.7817 23.7688 96.803 21.5632 94.835 20.5677 94.835 20.5677 91.7248 24.6956 88.8365 24.6956 88.8365 24.6956M118.798 40.0005C112.873 30.6627 116.776 28.5316 116.776 28.5316 129.329 14.2541 113.291 8.25334 107.586 7.30232 101.826 6.29169 97.0674 16.9605 97.0674 16.9605 97.0674 16.9605 102.841 21.3341 103.457 21.5281 104.043 21.6822 114.392 32.1679 97.7922 32.1679 81.208 32.1251 77.8594 26.8967 74.9434 22.6423 72.0718 18.4017 77.0383 18.8551 77.0383 18.8551 86.5368 20.1434 88.5032 16.1944 88.5032 16.1944L88.5032 15.6754C75.2386-2.50711 66.0336 16.3898 66.0336 16.3898 57.6085 2.29075 53.0182 14.9777 53.0182 14.9777 38.639-1.14237 36.9493 16.6829 36.9493 16.6829 30.2688 10.7645 21.8178 10.2837 21.8178 10.2837 21.8178 10.2837 10.0439 11.2941 7.74262 21.0137 5.38473 30.8091 6.52852 43.7726 6.52852 43.7726 8.07589 67.5176 6.7946 79.1709 6.7946 79.1709 2.84647 73.3978-0.347712 68.8091 0.517716 65.4017 1.41084 61.9594 0.991848 46.2316 0.991848 46.2316-0.598383 18.9039 8.36942 7.37252 8.36942 7.37252 21.2459-8.29108 33.2549 8.50215 33.2549 8.50215 34.4402 5.93302 36.7138 4.01729 36.7138 4.01729 42.5014-0.131738 50.2996 7.63047 50.2996 7.63047 50.2996 7.63047 52.0702 3.69059 56.1298 3.32879 60.2017 2.94415 64.0107 8.7036 64.0107 8.7036 68.3349 1.3169 75.4067 1.76716 75.4067 1.76716 82.0445 1.53206 92.2418 13.4238 92.2418 13.4238 99.5934-8.53388 116.416 3.41725 116.416 3.41725 135.075 19.8367 118.798 40.0005 118.798 40.0005" fill="#FFFFFF" fill-rule="evenodd" transform="matrix(1 0 0 -1.00134 584 259.346)"/><path d="M193.804 12.4136C191.063 12.3357 185.381 15.3369 185.381 15.3369 185.381 15.3369 183.598 15.702 188.446 20.9957 188.446 20.9957 192.065 20.5284 195.602 14.1944 195.602 14.1944 196.492 12.4687 193.804 12.4136M193.722 28.8338C191.214 30.1901 186.885 25.9197 186.885 25.9197 182.847 21.9013 182.429 20.1053 180.424 17.0461 178.475 13.9869 173.029 10.9505 168.658 11.8424 164.299 12.7482 162.058 14.9978 162.085 19.0941 162.14 23.1965 160.609 40.82 159.286 48.5254 157.991 56.2368 157.726 80.1715 157.726 80.1715 151.516 74.586 152.853 70.4897 152.853 70.4897 152.169 58.8838 155.931 39.6915 155.931 39.6915 161.456 16.5374 153.174 14.3763 153.174 14.3763 146.853 12.4136 143.162 23.7126 143.162 23.7126 139.359 37.9504 133.468 53.0525 133.468 53.0525 125.853 40.9805 130.309 36.139 130.309 36.139 136.993 23.4485 134.958 10.1226 126.662 8.97871 118.376 7.8913 123.317 25.7883 123.317 25.7883 122.566 24.7712 120.365 12.6428 107.556 10.0447 94.7447 7.4117 104.34 25.1041 104.34 25.1041 99.0203 18.1595 92.3497 10.4954 80.4859 11.3185 68.6098 12.1204 78.6616 28.4276 78.6616 28.4276 62.0902 8.56789 45.7157 9.41092 45.7157 9.41092 25.537 9.11147 33.4747 24.7712 33.4747 24.7712 26.0531 16.635 16.6255 8.97871 10.0693 11.6531 3.45346 14.2724 5.76603 42.1153 5.76603 42.1153 9.24641 63.3007 5.63934 83.1681 5.63934 83.1681-0.738242 75.8873 0.432464 71.9194 0.432464 71.9194 3.3436 59.9437 1.86592 45.7594 1.86592 45.7594-2.01905 7.3001 3.69001 4.52038 3.69001 4.52038 11.1118-7.51777 25.4134 12.1906 25.4134 12.1906 26.8757 6.37313 31.8064 2.70901 31.8064 2.70901 44.5464-7.14809 68.7885 14.8513 68.7885 14.8513 70.0416 4.39988 75.9047 2.47233 75.9047 2.47233 85.0682 1.02294 94.0074 9.99588 94.0074 9.99588 95.4683 6.205 98.921 3.09865 98.921 3.09865 105.341-2.78621 114.742 7.91415 114.742 7.91415 116.05 0.55705 121.606 0.486818 121.606 0.486818 131.853-0.974838 138.581 14.497 138.581 14.497 142.325 10.2311 141.115 9.88451 146.781 4.69452 152.462-0.481526 158.813 7.32776 159.594 7.48795 160.345 7.63322 162.42 3.89286 166.79 2.1089 171.136 0.366075 178.726 7.8088 179.463 8.97871 180.215 10.1914 181.342 9.54995 181.342 9.54995 182.33 9.3253 192.525 2.15171 197.565 7.58584 202.62 13.0048 195.505 27.8212 193.722 28.8338" fill="#FFFFFF" fill-rule="evenodd" transform="matrix(1 0 0 -1.00134 370 257.343)"/><path d="M0.324844 7.10243 4.08564 7.10243 4.08564 34.2064 0.324844 34.2064 0.324844 41.1523 14.3248 41.1523 14.3248 34.2064 10.5498 34.2064 10.5498 7.10243 14.3248 7.10243 14.3248 0.152054 0.324844 0.152054Z" fill="#FFFFFF" fill-rule="evenodd" transform="matrix(1 0 0 -1.00134 370 164.219)"/><path d="M0.323018 7.10243 3.59296 7.10243 3.59296 34.2064 0.323018 34.2064 0.323018 41.1523 10.504 41.1523 19.4599 15.5557 19.5455 15.5557 19.5455 34.2064 16.3753 34.2064 16.3753 41.1523 27.323 41.1523 27.323 34.2064 23.8972 34.2064 23.8972 0.152054 18.4373 0.152054 8.0163 30.2964 7.92916 30.2964 7.92916 7.10243 10.9856 7.10243 10.9856 0.152054 0.323018 0.152054Z" fill="#FFFFFF" fill-rule="evenodd" transform="matrix(1 0 0 -1.00134 385 164.219)"/><path d="M22.3298 24.6796 18.1101 24.6796 18.1101 34.2092 14.4701 34.2092 14.4701 7.10526 18.1101 7.10526 18.1101 0.154882 4.51893 0.154882 4.51893 7.10526 8.16184 7.10526 8.16184 34.2092 4.51893 34.2092 4.51893 24.6796 0.329845 24.6796 0.329845 41.1551 22.3298 41.1551Z" fill="#FFFFFF" fill-rule="evenodd" transform="matrix(1 0 0 -1.00134 413 164.219)"/><path d="M0.32701 7.10243 3.13723 7.10243 3.13723 34.2064 0.32701 34.2064 0.32701 41.1523 21.327 41.1523 21.327 28.1721 16.7909 28.1721 16.7909 34.2064 9.34393 34.2064 9.34393 24.801 15.3445 24.801 15.3445 17.8551 9.34393 17.8551 9.34393 7.10243 16.7909 7.10243 16.7909 13.1935 21.327 13.1935 21.327 0.152054 0.32701 0.152054Z" fill="#FFFFFF" fill-rule="evenodd" transform="matrix(1 0 0 -1.00134 437 164.219)"/><path d="M12.3816 24.727C15.1668 24.727 15.9904 27.39 15.9904 29.5678 15.9904 31.2474 15.403 34.2095 13.0519 34.2095L9.87691 34.2095 9.87691 24.727ZM25.3357 0.154871 18.0334 0.154871 12.6193 18.1529 9.87691 18.1529 9.87691 7.10614 12.8848 7.10614 12.8848 0.154871 0.335494 0.154871 0.335494 7.10614 3.61001 7.10614 3.61001 34.2095 0.335494 34.2095 0.335494 41.1549 15.2774 41.1549C19.9384 41.1549 22.4967 35.9041 22.4967 29.6831 22.4967 24.9785 21.153 21.669 18.3556 19.4836L22.259 7.10614 25.3357 7.10614Z" fill="#FFFFFF" fill-rule="evenodd" transform="matrix(1 0 0 -1.00134 460 164.219)"/><path d="M0.344258 7.10243 3.62624 7.10243 3.62624 34.2064 0.344258 34.2064 0.344258 41.1523 10.5425 41.1523 19.4766 15.5557 19.5467 15.5557 19.5467 34.2064 16.3937 34.2064 16.3937 41.1523 27.3443 41.1523 27.3443 34.2064 23.8799 34.2064 23.8799 0.152054 18.4396 0.152054 8.0295 30.2964 7.92824 30.2964 7.92824 7.10243 11.0111 7.10243 11.0111 0.152054 0.344258 0.152054Z" fill="#FFFFFF" fill-rule="evenodd" transform="matrix(1 0 0 -1.00134 486 164.219)"/><path d="M12.0104 32.5248 11.9569 32.5248 9.84287 20.154 13.8913 20.154ZM24.3355 0.156061 13.0244 0.156061 13.0244 7.10644 15.9373 7.10644 14.8548 14.0957 8.84081 14.0957 7.55493 7.10644 10.6682 7.10644 10.6682 0.156061 0.335499 0.156061 0.335499 7.10644 3.24815 7.10644 7.79714 34.2104 4.68226 34.2104 4.68226 41.1563 19.8386 41.1563 19.8386 34.2104 16.7226 34.2104 21.5846 7.10644 24.3355 7.10644Z" fill="#FFFFFF" fill-rule="evenodd" transform="matrix(1 0 0 -1.00134 513 164.219)"/><path d="M22.3562 24.6796 18.1515 24.6796 18.1515 34.2092 14.5098 34.2092 14.5098 7.10526 18.1515 7.10526 18.1515 0.154882 4.56089 0.154882 4.56089 7.10526 8.20258 7.10526 8.20258 34.2092 4.56089 34.2092 4.56089 24.6796 0.356179 24.6796 0.356179 41.1551 22.3562 41.1551Z" fill="#FFFFFF" fill-rule="evenodd" transform="matrix(1 0 0 -1.00134 537 164.219)"/><path d="M0.339978 7.10243 3.83981 7.10243 3.83981 34.2064 0.339978 34.2064 0.339978 41.1523 13.34 41.1523 13.34 34.2064 9.83714 34.2064 9.83714 7.10243 13.34 7.10243 13.34 0.152054 0.339978 0.152054Z" fill="#FFFFFF" fill-rule="evenodd" transform="matrix(1 0 0 -1.00134 561 164.219)"/><path d="M7.1412 21.4483C7.1412 13.3669 9.85769 7.79179 13.8338 7.79179 17.1755 7.79179 20.57 12.0955 20.57 21.6907 20.57 30.2995 17.6285 35.5148 13.8338 35.5148 10.6519 35.5148 7.1412 31.5359 7.1412 21.4483M27.3633 21.6221C27.3633 10.9352 23.0194 0.157012 13.8338 0.157012 4.73523 0.157012 0.36329 10.8086 0.36329 21.6221 0.36329 32.7539 4.89037 43.1573 13.8338 43.1573 22.8924 43.1573 27.3633 32.6914 27.3633 21.6221" fill="#FFFFFF" fill-rule="evenodd" transform="matrix(1 0 0 -1.00134 577 165.22)"/><path d="M0.356045 7.10243 3.51512 7.10243 3.51512 34.2064 0.356045 34.2064 0.356045 41.1523 10.1777 41.1523 18.7925 15.5557 18.8465 15.5557 18.8465 34.2064 15.8119 34.2064 15.8119 41.1523 26.3563 41.1523 26.3563 34.2064 23.0308 34.2064 23.0308 0.152054 17.7789 0.152054 7.75483 30.2964 7.68754 30.2964 7.68754 7.10243 10.6275 7.10243 10.6275 0.152054 0.356045 0.152054Z" fill="#FFFFFF" fill-rule="evenodd" transform="matrix(1 0 0 -1.00134 606 164.219)"/><path d="M12.0282 32.5248 11.9599 32.5248 9.87392 20.154 13.9253 20.154ZM24.3603 0.156061 13.0592 0.156061 13.0592 7.10644 15.9725 7.10644 14.8745 14.0957 8.85784 14.0957 7.58161 7.10644 10.6867 7.10644 10.6867 0.156061 0.36006 0.156061 0.36006 7.10644 3.27329 7.10644 7.82539 34.2104 4.69505 34.2104 4.69505 41.1563 19.8737 41.1563 19.8737 34.2104 16.7583 34.2104 21.6223 7.10644 24.3603 7.10644Z" fill="#FFFFFF" fill-rule="evenodd" transform="matrix(1 0 0 -1.00134 633 164.219)"/><path d="M0.384268 7.10243 3.89587 7.10243 3.89587 34.2064 0.384268 34.2064 0.384268 41.1523 13.9014 41.1523 13.9014 34.2064 10.3035 34.2064 10.3035 7.10243 17.5687 7.10243 17.5687 19.7816 22.3845 19.7816 22.3845 0.152054 0.384268 0.152054Z" fill="#FFFFFF" fill-rule="evenodd" transform="matrix(1 0 0 -1.00134 658 164.219)"/><path d="M0.366328 7.10243 3.8731 7.10243 3.8731 34.2064 0.366328 34.2064 0.366328 41.1523 13.3663 41.1523 13.3663 34.2064 9.88737 34.2064 9.88737 7.10243 13.3663 7.10243 13.3663 0.152054 0.366328 0.152054Z" fill="#FFFFFF" fill-rule="evenodd" transform="matrix(1 0 0 -1.00134 690 164.219)"/><path d="M0.63011 15.0004 4.64798 15.0004C4.57959 10.4962 6.24083 7.40467 8.30453 7.40467 9.74553 7.40467 10.9376 9.37684 10.9376 11.9318 10.9376 19.6043 0.381174 18.5262 0.381174 31.7256 0.381174 39.8814 3.86005 43.157 6.76788 43.157 8.65079 43.157 10.1631 41.8825 11.132 39.274L11.214 39.274 11.214 42.7215 15.203 42.7215 15.203 29.9851 11.214 29.9851C10.8814 33.8098 9.60588 36.1807 7.7806 36.1807 6.39436 36.1807 5.43759 34.7469 5.43759 32.761 5.43759 25.9685 16.3814 27.5069 16.3814 12.6633 16.3814 2.63511 12.0187 0.156981 9.4966 0.156981 7.39034 0.156981 5.76879 1.52344 4.73144 4.24235L4.64798 4.24235 4.64798 0.718249 0.63011 0.718249Z" fill="#FFFFFF" fill-rule="evenodd" transform="matrix(1 0 0 -1.00134 705 165.22)"/><path d="M0.398627 7.10243 3.89689 7.10243 3.89689 34.2064 0.398627 34.2064 0.398627 41.1523 13.9071 41.1523 13.9071 34.2064 10.3225 34.2064 10.3225 7.10243 17.5658 7.10243 17.5658 19.7816 22.3989 19.7816 22.3989 0.152054 0.398627 0.152054Z" fill="#FFFFFF" fill-rule="evenodd" transform="matrix(1 0 0 -1.00134 723 164.219)"/><path d="M12.5463 32.5248 12.4751 32.5248 10.3013 20.154 14.5236 20.154ZM25.3994 0.156061 13.6348 0.156061 13.6348 7.10644 16.6572 7.10644 15.5409 14.0957 9.24205 14.0957 7.91214 7.10644 11.162 7.10644 11.162 0.156061 0.399167 0.156061 0.399167 7.10644 3.42181 7.10644 8.17988 34.2104 4.919 34.2104 4.919 41.1563 20.7233 41.1563 20.7233 34.2104 17.4763 34.2104 22.5752 7.10644 25.3994 7.10644Z" fill="#FFFFFF" fill-rule="evenodd" transform="matrix(1 0 0 -1.00134 745 164.219)"/><path d="M0.399521 7.10243 3.55049 7.10243 3.55049 34.2064 0.399521 34.2064 0.399521 41.1523 12.455 41.1523 17.7331 17.1245 23.2043 41.1523 35.3596 41.1523 35.3596 34.2064 32.264 34.2064 32.264 7.10243 35.3995 7.10243 35.3995 0.152054 23.0265 0.152054 23.0265 7.10243 26.1864 7.10243 26.1864 34.2064 25.6126 34.2064 18.0969 0.152054 15.4924 0.152054 7.97519 34.2064 7.41494 34.2064 7.41494 7.10243 10.578 7.10243 10.578 0.152054 0.399521 0.152054Z" fill="#FFFFFF" fill-rule="evenodd" transform="matrix(1 0 0 -1.00134 771 164.219)"/><path d="M0.419798 7.10243 4.17678 7.10243 4.17678 34.2064 0.419798 34.2064 0.419798 41.1523 14.4198 41.1523 14.4198 34.2064 10.6344 34.2064 10.6344 7.10243 14.4198 7.10243 14.4198 0.152054 0.419798 0.152054Z" fill="#FFFFFF" fill-rule="evenodd" transform="matrix(1 0 0 -1.00134 807 164.219)"/><path d="M24.4328 42.4713 24.4328 27.7919 20.3165 27.7919C19.8943 29.6854 19.1626 32.0132 18.4894 32.9447 16.8025 35.2238 15.9027 35.7256 14.3422 35.7256 10.001 35.7256 7.17706 30.0573 7.17706 21.5064 7.17706 13.3701 9.93309 7.79492 13.9633 7.79492 17.3093 7.79492 19.7665 11.7862 20.6522 18.6693L25.4158 14.7484C23.661 3.4838 18.249 0.160373 13.5011 0.160373 3.17161 0.160373 0.415587 12.5072 0.415587 21.6254 0.415587 34.3641 5.57488 43.1604 13.0914 43.1604 16.0584 43.1604 18.3492 41.9362 20.3165 39.2288L20.3165 42.4713Z" fill="#FFFFFF" fill-rule="evenodd" transform="matrix(1 0 0 -1.00134 823 165.22)"/><path d="M0.420683 42.1597 11.6905 42.1597 11.6905 35.1266 9.6034 35.1266 9.6034 14.0424C9.6034 9.94818 10.3053 7.18352 12.7183 7.18352 14.7497 7.18352 16.0746 8.96759 16.0746 13.6665L16.0746 35.1266 14.071 35.1266 14.071 42.1597 23.4207 42.1597 23.4207 35.1266 20.3907 35.1266 20.3907 11.8838C20.3907 2.23306 15.4701 0.159453 12.0428 0.159453 7.30303 0.159453 3.27125 3.27739 3.27125 13.433L3.27125 35.1266 0.420683 35.1266Z" fill="#FFFFFF" fill-rule="evenodd" transform="matrix(1 0 0 -1.00134 858 165.22)"/><path d="M0.429323 7.10243 3.69586 7.10243 3.69586 34.2064 0.429323 34.2064 0.429323 41.1523 10.6345 41.1523 19.5685 15.5557 19.6279 15.5557 19.6279 34.2064 16.4872 34.2064 16.4872 41.1523 27.4293 41.1523 27.4293 34.2064 23.9773 34.2064 23.9773 0.152054 18.5203 0.152054 8.12966 30.2964 8.033 30.2964 8.033 7.10243 11.0878 7.10243 11.0878 0.152054 0.429323 0.152054Z" fill="#FFFFFF" fill-rule="evenodd" transform="matrix(1 0 0 -1.00134 882 164.219)"/><path d="M0.443599 7.10243 4.19455 7.10243 4.19455 34.2064 0.443599 34.2064 0.443599 41.1523 14.4436 41.1523 14.4436 34.2064 10.6749 34.2064 10.6749 7.10243 14.4436 7.10243 14.4436 0.152054 0.443599 0.152054Z" fill="#FFFFFF" fill-rule="evenodd" transform="matrix(1 0 0 -1.00134 910 164.219)"/><path d="M3.16687 35.0957 0.419714 35.0957 0.419714 42.1592 11.9508 42.1592 11.9508 35.0957 9.28582 35.0957 13.1614 14.2036 13.2567 14.2036 17.159 35.0957 14.5743 35.0957 14.5743 42.1592 24.4197 42.1592 24.4197 35.0957 21.6592 35.0957 14.8874 0.158942 10.1696 0.158942Z" fill="#FFFFFF" fill-rule="evenodd" transform="matrix(1 0 0 -1.00134 925 165.22)"/><path d="M0.434949 7.10243 3.24889 7.10243 3.24889 34.2064 0.434949 34.2064 0.434949 41.1523 21.4352 41.1523 21.4352 28.1721 16.9058 28.1721 16.9058 34.2064 9.47698 34.2064 9.47698 24.801 15.4712 24.801 15.4712 17.8551 9.47698 17.8551 9.47698 7.10243 16.9058 7.10243 16.9058 13.1935 21.4352 13.1935 21.4352 0.152054 0.434949 0.152054Z" fill="#FFFFFF" fill-rule="evenodd" transform="matrix(1 0 0 -1.00134 950 164.219)"/><path d="M12.4829 24.727C15.2895 24.727 16.0994 27.39 16.0994 29.5678 16.0994 31.2474 15.4855 34.2095 13.1658 34.2095L9.96711 34.2095 9.96711 24.727ZM25.443 0.154871 18.1252 0.154871 12.7476 18.1529 9.96711 18.1529 9.96711 7.10614 12.9849 7.10614 12.9849 0.154871 0.442967 0.154871 0.442967 7.10614 3.72265 7.10614 3.72265 34.2095 0.442967 34.2095 0.442967 41.1549 15.3876 41.1549C20.0517 41.1549 22.5949 35.9041 22.5949 29.6831 22.5949 24.9785 21.226 21.669 18.4606 19.4836L22.3299 7.10614 25.443 7.10614Z" fill="#FFFFFF" fill-rule="evenodd" transform="matrix(1 0 0 -1.00134 974 164.219)"/><path d="M0.693302 15.0004 4.7388 15.0004C4.65366 10.4962 6.30286 7.40467 8.38037 7.40467 9.80787 7.40467 11.0137 9.37684 11.0137 11.9318 11.0137 19.6043 0.442671 18.5262 0.442671 31.7256 0.442671 39.8814 3.94601 43.157 6.85721 43.157 8.72666 43.157 10.2226 41.8825 11.2081 39.274L11.2765 39.274 11.2765 42.7215 15.2794 42.7215 15.2794 29.9851 11.2765 29.9851C10.9575 33.8098 9.65457 36.1807 7.85352 36.1807 6.46859 36.1807 5.51318 34.7469 5.51318 32.761 5.51318 25.9685 16.4427 27.5069 16.4427 12.6633 16.4427 2.63511 12.0949 0.156981 9.57255 0.156981 7.46466 0.156981 5.8444 1.52344 4.8072 4.24235L4.7388 4.24235 4.7388 0.718249 0.693302 0.718249Z" fill="#FFFFFF" fill-rule="evenodd" transform="matrix(1 0 0 -1.00134 1000 165.22)"/><path d="M0.433132 7.10243 3.94113 7.10243 3.94113 34.2064 0.433132 34.2064 0.433132 41.1523 13.4334 41.1523 13.4334 34.2064 9.9372 34.2064 9.9372 7.10243 13.4334 7.10243 13.4334 0.152054 0.433132 0.152054Z" fill="#FFFFFF" fill-rule="evenodd" transform="matrix(1 0 0 -1.00134 1018 164.219)"/><path d="M22.4617 24.6796 18.2431 24.6796 18.2431 34.2092 14.6153 34.2092 14.6153 7.10526 18.2431 7.10526 18.2431 0.154882 4.66638 0.154882 4.66638 7.10526 8.30807 7.10526 8.30807 34.2092 4.66638 34.2092 4.66638 24.6796 0.461668 24.6796 0.461668 41.1551 22.4617 41.1551Z" fill="#FFFFFF" fill-rule="evenodd" transform="matrix(1 0 0 -1.00134 1033 164.219)"/><path d="M6.69417 7.10243 10.0826 7.10243 10.0826 18.15 3.47281 34.2064 0.460608 34.2064 0.460608 41.1523 12.2935 41.1523 12.2935 34.2064 10.0826 34.2064 13.7537 24.1977 17.2405 34.2064 15.1539 34.2064 15.1539 41.1523 25.4608 41.1523 25.4608 34.2064 22.4499 34.2064 16.1764 18.15 16.1764 7.10243 19.5926 7.10243 19.5926 0.152054 6.69417 0.152054Z" fill="#FFFFFF" fill-rule="evenodd" transform="matrix(1 0 0 -1.00134 1056 164.219)"/><path d="M0.466953 7.10243 3.58868 7.10243 3.58868 34.2064 0.466953 34.2064 0.466953 41.1523 12.478 41.1523 17.7713 17.1245 23.2442 41.1523 35.4256 41.1523 35.4256 34.2064 32.3162 34.2064 32.3162 7.10243 35.4669 7.10243 35.4669 0.152054 23.0615 0.152054 23.0615 7.10243 26.2263 7.10243 26.2263 34.2064 25.666 34.2064 18.1474 0.152054 15.5306 0.152054 8.04238 34.2064 7.49446 34.2064 7.49446 7.10243 10.6147 7.10243 10.6147 0.152054 0.466953 0.152054Z" fill="#FFFFFF" fill-rule="evenodd" transform="matrix(1 0 0 -1.00134 1090 164.219)"/><path d="M12.6636 32.5248 12.5771 32.5248 10.3765 20.154 14.5965 20.154ZM25.4803 0.156061 13.7067 0.156061 13.7067 7.10644 16.7291 7.10644 15.5979 14.0957 9.31636 14.0957 8.00401 7.10644 11.237 7.10644 11.237 0.156061 0.480099 0.156061 0.480099 7.10644 3.51471 7.10644 8.25795 34.2104 4.99717 34.2104 4.99717 41.1563 20.8068 41.1563 20.8068 34.2104 17.5602 34.2104 22.6422 7.10644 25.4803 7.10644Z" fill="#FFFFFF" fill-rule="evenodd" transform="matrix(1 0 0 -1.00134 1126 164.219)"/><path d="M0.468567 7.10243 3.83379 7.10243 3.83379 34.2064 0.468567 34.2064 0.468567 41.1523 13.3825 41.1523 13.3825 34.2064 9.9646 34.2064 9.9646 7.10243 16.8722 7.10243 16.8722 19.7816 21.4688 19.7816 21.4688 0.152054 0.468567 0.152054Z" fill="#FFFFFF" fill-rule="evenodd" transform="matrix(1 0 0 -1.00134 1152 164.219)"/><path d="M12.6606 32.5248 12.5894 32.5248 10.3996 20.154 14.6086 20.154ZM25.4901 0.156061 13.7175 0.156061 13.7175 7.10644 16.7689 7.10644 15.61 14.0957 9.32888 14.0957 8.01516 7.10644 11.2616 7.10644 11.2616 0.156061 0.490057 0.156061 0.490057 7.10644 3.54006 7.10644 8.25495 34.2104 5.03631 34.2104 5.03631 41.1563 20.8168 41.1563 20.8168 34.2104 17.5721 34.2104 22.6367 7.10644 25.4901 7.10644Z" fill="#FFFFFF" fill-rule="evenodd" transform="matrix(1 0 0 -1.00134 1173 164.219)"/><path d="M6.69979 7.10243 10.1041 7.10243 10.1041 18.15 3.50618 34.2064 0.490618 34.2064 0.490618 41.1523 12.3177 41.1523 12.3177 34.2064 10.1041 34.2064 13.7772 24.1977 17.2798 34.2064 15.1627 34.2064 15.1627 41.1523 25.4906 41.1523 25.4906 34.2064 22.4797 34.2064 16.2136 18.15 16.2136 7.10243 19.5901 7.10243 19.5901 0.152054 6.69979 0.152054Z" fill="#FFFFFF" fill-rule="evenodd" transform="matrix(1 0 0 -1.00134 1197 164.219)"/><path d="M0.740328 15.0004 4.76055 15.0004C4.69066 10.4962 6.34126 7.40467 8.42055 7.40467 9.84927 7.40467 11.0393 9.37684 11.0393 11.9318 11.0393 19.6043 0.489723 18.5262 0.489723 31.7256 0.489723 39.8814 3.9702 43.157 6.89609 43.157 8.76714 43.157 10.2641 41.8825 11.2476 39.274L11.3189 39.274 11.3189 42.7215 15.2982 42.7215 15.2982 29.9851 11.3189 29.9851C10.9999 33.8098 9.71092 36.1807 7.89301 36.1807 6.52054 36.1807 5.53726 34.7469 5.53726 32.761 5.53726 25.9685 16.4897 27.5069 16.4897 12.6633 16.4897 2.63511 12.1215 0.156981 9.58621 0.156981 7.49185 0.156981 5.88218 1.52344 4.84409 4.24235L4.76055 4.24235 4.76055 0.718249 0.740328 0.718249Z" fill="#FFFFFF" fill-rule="evenodd" transform="matrix(1 0 0 -1.00134 1223 165.22)"/><path d="M0.514084 7.10243 4.26957 7.10243 4.26957 34.2064 0.514084 34.2064 0.514084 41.1523 14.5143 41.1523 14.5143 34.2064 10.7429 34.2064 10.7429 7.10243 14.5143 7.10243 14.5143 0.152054 0.514084 0.152054Z" fill="#FFFFFF" fill-rule="evenodd" transform="matrix(1 0 0 -1.00134 1241 164.219)"/><path d="M12.6747 32.5248 12.605 32.5248 10.4347 20.154 14.6349 20.154ZM25.5071 0.156061 13.7322 0.156061 13.7322 7.10644 16.7636 7.10644 15.6228 14.0957 9.36182 14.0957 8.03697 7.10644 11.2804 7.10644 11.2804 0.156061 0.507104 0.156061 0.507104 7.10644 3.53853 7.10644 8.29065 34.2104 5.0333 34.2104 5.0333 41.1563 20.8263 41.1563 20.8263 34.2104 17.5828 34.2104 22.6458 7.10644 25.5071 7.10644Z" fill="#FFFFFF" fill-rule="evenodd" transform="matrix(1 0 0 -1.00134 1255 164.219)"/><path d="M212.193 264.183 240.339 292.366C240.339 292.366 245.135 296.017 252.067 294.104 258.938 292.183 285.963 285.865 285.963 285.865 285.963 285.865 292.28 258.812 294.201 251.926 296.123 245.039 292.465 240.237 292.465 240.237L264.302 212.078 264.502 211.537 304.378 211.537C304.378 211.537 310.345 210.715 313.847 204.484 317.382 198.264 332.017 174.686 332.017 174.686 332.017 174.686 317.382 151.108 313.847 144.868 310.345 138.634 304.378 137.834 304.378 137.834L264.502 137.834 264.302 137.296 292.465 109.12C292.465 109.12 296.123 104.326 294.201 97.4169 292.28 90.5369 285.963 63.5166 285.963 63.5166 285.963 63.5166 258.938 57.1895 252.067 55.2607 245.135 53.341 240.339 56.9817 240.339 56.9817L212.193 85.149 211.656 84.926 211.656 45.1233C211.656 45.1233 210.825 39.1442 204.583 35.6105 198.373 32.0812 174.794 17.4399 174.794 17.4399 174.794 17.4399 151.197 32.0812 144.987 35.6105 138.713 39.1442 137.916 45.1233 137.916 45.1233L137.916 84.926 137.394 85.149 109.217 56.9817C109.217 56.9817 104.435 53.341 97.5339 55.2607 90.6321 57.1895 63.6085 63.5166 63.6085 63.5166 63.6085 63.5166 57.2887 90.5292 55.3521 97.4169 53.4477 104.318 57.1055 109.12 57.1055 109.12L85.2666 137.296 85.0514 137.834 45.1776 137.834C45.1776 137.834 39.229 138.634 35.6948 144.868 32.173 151.108 17.5371 174.686 17.5371 174.686 17.5371 174.686 32.173 198.264 35.6948 204.484 39.229 210.715 45.1776 211.537 45.1776 211.537L85.0514 211.537 85.2666 212.078 57.1055 240.237C57.1055 240.237 53.4477 245.039 55.3521 251.926 57.2887 258.812 63.6085 285.865 63.6085 285.865 63.6085 285.865 90.6321 292.183 97.5033 294.104 104.435 296.017 109.217 292.366 109.217 292.366L137.394 264.183 137.916 264.406 137.916 304.264C137.916 304.264 138.713 310.228 144.987 313.739 151.197 317.26 174.794 331.917 174.794 331.917 174.794 331.917 198.373 317.26 204.583 313.739 210.825 310.228 211.656 304.264 211.656 304.264L211.656 264.406ZM326.315 213.974C326.315 213.974 321.042 223.866 310.742 223.866L293.542 223.866 305.7 236.042C312.972 243.308 309.714 254.053 309.714 254.053L298.183 298.07 254.158 309.611C254.158 309.611 243.415 312.879 236.141 305.6L223.967 293.426 223.967 310.643C223.967 320.926 214.083 326.23 214.083 326.23L174.794 349.178 135.488 326.23C135.488 326.23 125.587 320.926 125.587 310.643L125.587 293.426 113.428 305.6C106.143 312.879 95.4262 309.611 95.4262 309.611L51.3875 298.07 39.8444 254.053C39.8444 254.053 36.5989 243.308 43.8687 236.042L56.0304 223.866 38.8133 223.866C28.5289 223.866 23.24 213.974 23.24 213.974L0.277314 174.686 23.24 135.398C23.24 135.398 28.5289 125.491 38.8133 125.491L56.0304 125.491 43.8687 113.333C36.5989 106.049 39.8444 95.3337 39.8444 95.3337L51.3875 51.2946 95.4262 39.746C95.4262 39.746 106.143 36.4855 113.428 43.7731L125.587 55.9372 125.587 38.7289C125.587 28.4234 135.488 23.1593 135.488 23.1593L174.794 0.178211 214.083 23.1593C214.083 23.1593 223.967 28.4234 223.967 38.7289L223.967 55.9372 236.141 43.7731C243.415 36.4855 254.158 39.746 254.158 39.746L298.183 51.2946 309.714 95.3337C309.714 95.3337 312.972 106.049 305.7 113.333L293.542 125.491 310.742 125.491C321.042 125.491 326.315 135.398 326.315 135.398L349.278 174.686Z" fill="#FFFFFF" fill-rule="evenodd" transform="matrix(1 0 0 -1.00134 0 351.469)"/><path d="M228.83 107.557C226.622 103.78 222.834 103.295 222.834 103.295L192.283 103.295 192.283 148.067 222.834 148.067C222.834 148.067 226.622 147.567 228.83 143.751 231.085 139.962 240.327 125.675 240.327 125.675 240.327 125.675 231.085 111.329 228.83 107.557M210.25 72.8599C210.25 72.8599 212.55 69.8787 211.461 65.586 210.358 61.351 206.785 44.6704 206.785 44.6704 206.785 44.6704 190.122 41.092 185.876 40.0027 181.612 38.9198 178.578 41.2458 178.578 41.2458L161.117 58.6776 192.283 58.6776 192.283 90.8065ZM74.5481 176.946 177.06 176.946 177.06 74.4018 74.5481 74.4018ZM148.163 28.6264C148.163 28.6264 147.688 24.8682 143.9 22.6153 140.115 20.3835 125.813 11.1368 125.813 11.1368 125.813 11.1368 111.479 20.3835 107.693 22.6153 103.936 24.8682 103.429 28.6264 103.429 28.6264L103.429 58.6776 148.163 58.6776ZM73.031 41.2458C73.031 41.2458 70.0107 38.9198 65.749 40.0089 61.4706 41.092 44.8214 44.6704 44.8214 44.6704 44.8214 44.6704 41.236 61.351 40.147 65.586 39.058 69.8787 41.3883 72.8599 41.3883 72.8599L57.6856 89.1903 57.6856 58.6776 90.4919 58.6776ZM28.7876 103.295C28.7876 103.295 25.0163 103.78 22.7621 107.557 20.5398 111.329 11.2823 125.675 11.2823 125.675 11.2823 125.675 20.5398 139.962 22.7621 143.751 25.0163 147.567 28.7876 148.067 28.7876 148.067L57.6856 148.067 57.6856 103.295ZM41.3883 178.454C41.3883 178.454 39.058 181.467 40.147 185.731 41.236 189.994 44.8214 206.659 44.8214 206.659 44.8214 206.659 61.4706 210.247 65.749 211.327 70.0107 212.448 73.031 210.101 73.031 210.101L88.1768 194.945 57.6856 194.945 57.6856 162.15ZM103.429 222.697C103.429 222.697 103.936 226.478 107.693 228.714 111.479 230.952 125.813 240.223 125.813 240.223 125.813 240.223 140.115 230.952 143.9 228.714 147.688 226.478 148.163 222.697 148.163 222.697L148.163 194.945 103.429 194.945ZM178.578 210.101C178.578 210.101 181.612 212.448 185.86 211.327 190.122 210.247 206.785 206.659 206.785 206.659 206.785 206.659 210.358 189.994 211.461 185.731 212.55 181.467 210.219 178.454 210.219 178.454L192.283 160.509 192.283 194.945 163.432 194.945ZM236.725 149.508C236.725 149.508 233.398 155.516 226.853 155.516L197.879 155.516 218.359 176.025C222.991 180.617 221.119 187.247 221.119 187.247L214.528 214.404 187.362 220.988C187.362 220.988 180.755 222.875 176.14 218.243L155.66 197.766 155.66 226.745C155.66 233.254 149.634 236.59 149.634 236.59L125.813 251.161 101.956 236.59C101.956 236.59 95.9478 233.254 95.9478 226.745L95.9478 197.766 75.4512 218.243C70.8514 222.875 64.2305 220.988 64.2305 220.988L37.0808 214.404 30.489 187.24C30.489 187.24 28.6185 180.617 33.232 176.025L53.7301 155.516 24.7558 155.516C18.2095 155.516 14.8678 149.508 14.8678 149.508L0.287114 125.675 14.8678 101.814C14.8678 101.814 18.2095 95.7971 24.7558 95.7971L53.7301 95.7971 33.232 75.3218C28.6185 70.7121 30.489 64.1067 30.489 64.1067L37.0808 36.9209 64.2305 30.3522C64.2305 30.3522 70.8514 28.4724 75.4512 33.0869L95.9478 53.5728 95.9478 24.5865C95.9478 18.0603 101.956 14.7334 101.956 14.7334L125.813 0.160972 149.634 14.7334C149.634 14.7334 155.66 18.0603 155.66 24.5865L155.66 53.5728 176.14 33.0869C180.755 28.4724 187.362 30.3522 187.362 30.3522L214.528 36.9209 221.119 64.1067C221.119 64.1067 222.991 70.7121 218.359 75.3218L197.879 95.7971 226.853 95.7971C233.398 95.7971 236.725 101.814 236.725 101.814L251.287 125.675Z" fill="#FFFFFF" fill-rule="evenodd" transform="matrix(1 0 0 -1.00134 49 302.403)"/><path d="M45.9999 21.0292C45.0797 21.0198 44.3107 20.2502 44.3107 19.3172 44.3107 18.3777 45.0797 17.6081 45.9999 17.6081 46.9385 17.6081 47.6893 18.3777 47.6893 19.3172 47.6893 20.2502 46.9385 21.0198 45.9999 21.0292ZM17.9879 36.77C15.3697 36.8376 11.9565 36.4026 8.77636 34.3929L41.5831 21.4435C41.5831 21.4435 42.7962 23.8211 46.0052 23.8455 49.2158 23.8211 50.4442 21.4435 50.4442 21.4435L83.2507 34.3929C76.8769 38.4123 69.5811 36.1326 69.5811 36.1326L46.0052 26.7326 22.4293 36.1326C22.4293 36.1326 20.6061 36.7025 17.9879 36.77ZM20.0466 40.9079C21.0859 40.7892 21.7415 40.5948 22.0257 40.568 23.1624 40.4779 45.7101 31.5613 45.9999 31.4526 46.2928 31.5613 68.8542 40.4779 69.9743 40.568 71.1126 40.6752 78.2082 43.4643 92 33.3621L50.8846 17.5223 85.6412 0 75.628 0 45.9999 15.1542 16.3734 0 6.37395 0 41.1322 17.5223 0 33.3621C10.3573 40.9387 16.9286 41.264 20.0466 40.9079Z" fill="#FFFFFF" fill-rule="evenodd" transform="matrix(1 0 0 -1.00134 129 196.262)"/><path d="M922.066 29.7168C922.066 29.6884 922.066 29.66 922.066 29.6316 921.792 28.3909 921.517 27.1501 921.243 25.9093 920.804 23.8843 919.94 22.3014 918.651 21.1604 917.362 20.0195 915.689 19.4491 913.632 19.4491 912.288 19.4491 911.164 19.7841 910.259 20.4539 909.354 21.1238 908.901 22.1144 908.901 23.4257 908.901 25.4779 909.729 26.8319 911.385 27.4875 913.041 28.1432 915.028 28.4709 917.347 28.4709 918.34 28.4709 919.285 28.5569 920.182 28.7288 921.079 28.9006 921.707 29.2299 922.066 29.7168ZM519.266 29.7168C519.266 29.6884 519.266 29.66 519.266 29.6316 518.992 28.3909 518.718 27.1501 518.444 25.9093 518.005 23.8843 517.141 22.3014 515.852 21.1604 514.563 20.0195 512.89 19.4491 510.833 19.4491 509.489 19.4491 508.365 19.7841 507.459 20.4539 506.554 21.1238 506.102 22.1144 506.102 23.4257 506.102 25.4779 506.93 26.8319 508.586 27.4875 510.241 28.1432 512.229 28.4709 514.547 28.4709 515.54 28.4709 516.486 28.5569 517.383 28.7288 518.28 28.9006 518.908 29.2299 519.266 29.7168ZM1090.77 38.3091C1092.57 38.3091 1093.99 37.7363 1095.04 36.5906 1096.09 35.445 1096.61 33.9556 1096.61 32.1227 1096.61 31.5498 1096.61 30.977 1096.61 30.4042 1091.95 30.4042 1087.28 30.4042 1082.62 30.4042 1083.11 32.6095 1084.09 34.4784 1085.54 36.0106 1086.98 37.5429 1088.73 38.3091 1090.77 38.3091ZM964.835 38.3091C966.712 38.3091 968.175 37.7376 969.224 36.5946 970.272 35.4517 970.797 33.8944 970.797 31.9227 970.797 28.8361 969.948 25.9856 968.251 23.3709 966.554 20.7564 964.297 19.4491 961.482 19.4491 959.578 19.4491 958.143 20.0492 957.177 21.2494 956.211 22.4496 955.728 24.0499 955.728 26.0504 955.728 29.1077 956.549 31.9152 958.191 34.4728 959.833 37.0303 962.048 38.3091 964.835 38.3091ZM878.184 38.3091C879.978 38.3091 881.4 37.7363 882.448 36.5906 883.497 35.445 884.021 33.9556 884.021 32.1227 884.021 31.5498 884.021 30.977 884.021 30.4042 879.357 30.4042 874.693 30.4042 870.029 30.4042 870.525 32.6095 871.498 34.4784 872.947 36.0106 874.396 37.5429 876.142 38.3091 878.184 38.3091ZM853.693 38.3091C855.708 38.3091 857.184 37.7005 858.123 36.4832 859.061 35.266 859.53 33.6119 859.53 31.5212 859.53 28.8003 858.737 26.2871 857.15 23.9815 855.563 21.6759 853.513 20.5231 851.002 20.5231 849.098 20.5231 847.662 21.1746 846.697 22.4778 845.731 23.781 845.248 25.4493 845.248 27.4828 845.248 30.1751 846.034 32.6525 847.607 34.9151 849.18 37.1777 851.209 38.3091 853.693 38.3091ZM829.45 38.3091C831.327 38.3091 832.789 37.7376 833.838 36.5946 834.887 35.4517 835.411 33.8944 835.411 31.9227 835.411 28.8361 834.563 25.9856 832.865 23.3709 831.168 20.7564 828.912 19.4491 826.097 19.4491 824.192 19.4491 822.757 20.0492 821.791 21.2494 820.825 22.4496 820.342 24.0499 820.342 26.0504 820.342 29.1077 821.163 31.9152 822.805 34.4728 824.448 37.0303 826.662 38.3091 829.45 38.3091ZM806.575 38.3091C808.369 38.3091 809.791 37.7363 810.84 36.5906 811.888 35.445 812.413 33.9556 812.413 32.1227 812.413 31.5498 812.413 30.977 812.413 30.4042 807.748 30.4042 803.084 30.4042 798.42 30.4042 798.917 32.6095 799.889 34.4784 801.339 36.0106 802.788 37.5429 804.533 38.3091 806.575 38.3091ZM741.928 38.3091C743.971 38.3091 745.53 37.6804 746.606 36.4232 747.683 35.1658 748.221 33.4799 748.221 31.3655 748.221 28.479 747.428 25.7713 745.841 23.2425 744.254 20.7135 742.135 19.4491 739.486 19.4491 737.388 19.4491 735.794 20.0991 734.704 21.3994 733.614 22.6997 733.069 24.45 733.069 26.6505 733.069 29.5651 733.876 32.2369 735.491 34.6658 737.105 37.0946 739.251 38.3091 741.928 38.3091ZM640.11 38.3091C642.152 38.3091 643.711 37.6804 644.788 36.4232 645.864 35.1658 646.402 33.4799 646.402 31.3655 646.402 28.479 645.609 25.7713 644.022 23.2425 642.435 20.7135 640.317 19.4491 637.667 19.4491 635.569 19.4491 633.976 20.0991 632.886 21.3994 631.795 22.6997 631.25 24.45 631.25 26.6505 631.25 29.5651 632.058 32.2369 633.672 34.6658 635.287 37.0946 637.432 38.3091 640.11 38.3091ZM577.204 38.3091C578.997 38.3091 580.419 37.7363 581.468 36.5906 582.516 35.445 583.041 33.9556 583.041 32.1227 583.041 31.5498 583.041 30.977 583.041 30.4042 578.376 30.4042 573.712 30.4042 569.048 30.4042 569.545 32.6095 570.518 34.4784 571.967 36.0106 573.416 37.5429 575.161 38.3091 577.204 38.3091ZM553.085 38.3091C554.961 38.3091 556.424 37.7376 557.473 36.5946 558.522 35.4517 559.046 33.8944 559.046 31.9227 559.046 28.8361 558.198 25.9856 556.5 23.3709 554.803 20.7564 552.547 19.4491 549.732 19.4491 547.827 19.4491 546.392 20.0492 545.426 21.2494 544.46 22.4496 543.977 24.0499 543.977 26.0504 543.977 29.1077 544.798 31.9152 546.44 34.4728 548.082 37.0303 550.297 38.3091 553.085 38.3091ZM1022.69 39.9429C1021.15 32.5543 1019.62 25.1656 1018.08 17.7769 1018.96 17.7758 1019.83 17.7747 1020.71 17.7736 1022.24 25.162 1023.78 32.5504 1025.31 39.9389 1024.44 39.9402 1023.56 39.9416 1022.69 39.9429ZM758.489 39.9437C757.572 39.9429 756.656 39.9423 755.739 39.9416 756.567 32.5523 757.395 25.1629 758.223 17.7736 759.173 17.7745 760.124 17.7753 761.075 17.7763 764.034 23.9964 766.994 30.2167 769.953 36.4369 770.463 30.2161 770.972 23.9951 771.481 17.7742 772.416 17.774 773.351 17.7738 774.285 17.7736 778.025 25.1629 781.765 32.5523 785.505 39.9416 784.584 39.9396 783.663 39.9375 782.742 39.9356 779.689 33.6872 776.636 27.4387 773.583 21.1903 773.1 27.4407 772.616 33.6911 772.133 39.9416 771.112 39.9416 770.09 39.9416 769.069 39.9416 766.108 33.6529 763.147 27.3642 760.186 21.0755 759.62 27.3649 759.055 33.6542 758.489 39.9437ZM1059.56 39.9456C1058.59 35.2043 1057.61 30.4628 1056.64 25.7214 1056.42 24.6384 1056.31 23.7694 1056.31 23.1142 1056.31 21.0623 1056.89 19.5591 1058.04 18.6043 1059.2 17.6495 1060.78 17.1721 1062.76 17.1721 1064.28 17.1721 1065.72 17.6049 1067.09 18.4703 1068.46 19.3358 1069.58 20.4497 1070.46 21.812 1070.22 20.4658 1069.97 19.1197 1069.72 17.7736 1070.52 17.7736 1071.32 17.7736 1072.12 17.7736 1073.65 25.1629 1075.18 32.5523 1076.72 39.9416 1075.84 39.9427 1074.97 39.9439 1074.09 39.945 1073.3 36.1501 1072.52 32.3551 1071.73 28.5602 1071.15 25.7655 1070.1 23.5483 1068.57 21.9086 1067.04 20.2689 1065.31 19.4491 1063.38 19.4491 1062.08 19.4491 1061.02 19.769 1060.17 20.4089 1059.33 21.0489 1058.91 22.0516 1058.91 23.417 1058.91 24.0994 1059.01 24.8389 1059.2 25.6355 1060.2 30.4042 1061.19 35.1729 1062.18 39.9416 1061.31 39.9429 1060.43 39.9443 1059.56 39.9456ZM1040.76 40.2853C1038.94 40.2853 1037.43 39.8229 1036.22 38.8981 1035.01 37.9733 1033.92 36.6151 1032.96 34.8231 1033.31 36.5284 1033.66 38.2336 1034.02 39.9389 1033.23 39.9398 1032.44 39.9408 1031.65 39.9416 1030.11 32.5523 1028.58 25.1629 1027.05 17.7736 1027.92 17.7724 1028.8 17.7713 1029.67 17.7703 1030.48 21.6363 1031.28 25.5024 1032.08 29.3685 1032.57 31.743 1033.49 33.7121 1034.83 35.2759 1036.16 36.8397 1037.92 37.6217 1040.09 37.6217 1040.59 37.6217 1041.09 37.6217 1041.58 37.6217 1041.78 38.5095 1041.97 39.3975 1042.16 40.2853 1041.69 40.2853 1041.22 40.2853 1040.76 40.2853ZM539.495 40.2853C537.679 40.2853 536.165 39.8229 534.955 38.8981 533.744 37.9733 532.657 36.6151 531.694 34.8231 532.047 36.5284 532.401 38.2336 532.754 39.9389 531.964 39.9398 531.174 39.9408 530.384 39.9416 528.852 32.5523 527.32 25.1629 525.788 17.7736 526.662 17.7724 527.537 17.7713 528.412 17.7703 529.214 21.6363 530.015 25.5024 530.817 29.3685 531.313 31.743 532.229 33.7121 533.565 35.2759 534.901 36.8397 536.657 37.6217 538.833 37.6217 539.329 37.6217 539.825 37.6217 540.321 37.6217 540.513 38.5095 540.706 39.3975 540.899 40.2853 540.431 40.2853 539.963 40.2853 539.495 40.2853ZM1091.1 40.5861C1087.6 40.5861 1084.8 39.1852 1082.7 36.3835 1080.6 33.5819 1079.55 30.3084 1079.55 26.5632 1079.55 23.6472 1080.31 21.353 1081.81 19.6807 1083.31 18.0083 1085.46 17.1721 1088.25 17.1721 1090.79 17.1721 1092.86 17.8343 1094.48 19.1588 1096.09 20.4832 1097.26 22.3986 1097.98 24.9052 1097.11 24.9052 1096.24 24.9052 1095.37 24.9052 1094.87 23.2856 1093.99 21.9713 1092.74 20.9624 1091.48 19.9535 1090.03 19.4491 1088.37 19.4491 1086.33 19.4491 1084.78 20.0903 1083.73 21.3729 1082.69 22.6555 1082.16 24.337 1082.16 26.4175 1082.2 26.9874 1082.24 27.5574 1082.29 28.1273 1087.86 28.1273 1093.44 28.1273 1099.01 28.1273 1099.09 28.786 1099.15 29.4375 1099.18 30.082 1099.2 30.7264 1099.22 31.3493 1099.22 31.9508 1099.22 34.5571 1098.5 36.6479 1097.07 38.2232 1095.63 39.7984 1093.64 40.5861 1091.1 40.5861ZM942.539 40.5861C941.021 40.5861 939.579 40.1493 938.213 39.2757 936.847 38.4021 935.722 37.278 934.839 35.9033 935.088 37.2494 935.336 38.5955 935.584 39.9416 934.784 39.9416 933.984 39.9416 933.183 39.9416 931.651 32.5523 930.119 25.1629 928.587 17.7736 929.462 17.7724 930.337 17.7713 931.212 17.7703 931.998 21.5651 932.785 25.36 933.572 29.155 934.151 31.9627 935.205 34.1903 936.735 35.8378 938.265 37.4854 939.994 38.3091 941.924 38.3091 943.219 38.3091 944.288 37.9869 945.128 37.3425 945.969 36.698 946.389 35.6885 946.389 34.3137 946.389 33.6263 946.293 32.8816 946.1 32.0797 945.106 27.311 944.113 22.5423 943.12 17.7736 943.995 17.7722 944.869 17.7709 945.745 17.7695 946.718 22.511 947.692 27.2523 948.666 31.9938 948.887 33.0821 948.998 33.9556 948.998 34.6144 948.998 36.6766 948.418 38.1874 947.259 39.1469 946.1 40.1063 944.526 40.5861 942.539 40.5861ZM918.257 40.5861C915.828 40.5861 913.8 39.9775 912.172 38.7601 910.543 37.5429 909.563 35.7314 909.232 33.3256 910.102 33.3256 910.971 33.3256 911.84 33.3256 912.089 35.1013 912.813 36.3759 914.014 37.1491 915.214 37.9224 916.725 38.3091 918.547 38.3091 919.817 38.3091 920.886 38.0804 921.755 37.6231 922.625 37.1657 923.059 36.3369 923.059 35.1367 923.059 33.7359 922.852 32.7212 922.438 32.0925 922.025 31.4637 921.452 31.0563 920.721 30.8704 919.989 30.6845 918.754 30.5415 917.015 30.4415 915.276 30.3414 913.724 30.1699 912.358 29.9269 910.992 29.684 909.639 29.0551 908.301 28.0406 906.962 27.0261 906.293 25.4468 906.293 23.3028 906.293 21.2165 906.911 19.6731 908.146 18.6727 909.381 17.6723 911.054 17.1721 913.163 17.1721 914.69 17.1721 916.134 17.5334 917.494 18.2562 918.854 18.979 919.895 19.9637 920.617 21.2105 920.617 21.1818 920.617 21.1532 920.617 21.1246 920.617 20.7236 920.617 20.3226 920.617 19.9216 920.617 19.1483 920.814 18.554 921.207 18.1387 921.6 17.7234 922.149 17.5158 922.854 17.5158 923.641 17.5158 924.346 17.5874 924.97 17.7306 925.092 18.4467 925.214 19.1627 925.336 19.8787 924.991 19.85 924.646 19.8214 924.301 19.7928 923.915 19.7928 923.591 19.8572 923.329 19.986 923.066 20.1149 922.935 20.3512 922.935 20.6949 922.935 21.2677 923.115 22.3632 923.473 23.9815 923.832 25.5996 924.115 26.9243 924.322 27.9554 924.529 28.9865 924.805 30.2538 925.15 31.7575 925.495 33.2611 925.668 34.5571 925.668 35.6454 925.668 37.3926 924.895 38.6528 923.349 39.4261 921.804 40.1993 920.106 40.5861 918.257 40.5861ZM878.516 40.5861C875.01 40.5861 872.209 39.1852 870.112 36.3835 868.014 33.5819 866.965 30.3084 866.965 26.5632 866.965 23.6472 867.717 21.353 869.221 19.6807 870.726 18.0083 872.871 17.1721 875.659 17.1721 878.198 17.1721 880.275 17.8343 881.889 19.1588 883.504 20.4832 884.67 22.3986 885.388 24.9052 884.518 24.9052 883.649 24.9052 882.78 24.9052 882.283 23.2856 881.406 21.9713 880.151 20.9624 878.895 19.9535 877.439 19.4491 875.783 19.4491 873.741 19.4491 872.195 20.0903 871.146 21.3729 870.098 22.6555 869.573 24.337 869.573 26.4175 869.615 26.9874 869.656 27.5574 869.697 28.1273 875.273 28.1273 880.848 28.1273 886.423 28.1273 886.505 28.786 886.561 29.4375 886.588 30.082 886.616 30.7264 886.63 31.3493 886.63 31.9508 886.63 34.5571 885.912 36.6479 884.477 38.2232 883.042 39.7984 881.055 40.5861 878.516 40.5861ZM853.574 40.5861C850.315 40.5861 847.679 39.2399 845.663 36.5477 843.647 33.8554 842.64 30.7623 842.64 27.268 842.64 24.6044 843.329 22.4349 844.709 20.7594 846.089 19.0839 848.035 18.2462 850.547 18.2462 852.037 18.2462 853.445 18.6113 854.769 19.3417 856.094 20.072 857.115 21.0672 857.833 22.3275 857.86 22.2988 857.888 22.2702 857.916 22.2415 857.005 18.4896 856.094 15.7115 855.183 13.9071 854.273 12.1026 852.396 11.2005 849.553 11.2005 847.787 11.2005 846.345 11.58 845.227 12.3389 844.109 13.098 843.55 14.3509 843.55 16.0981 842.681 16.0981 841.811 16.0981 840.942 16.0981 840.942 13.6063 841.715 11.7876 843.26 10.642 844.806 9.49638 846.779 8.92354 849.18 8.92354 852.409 8.92354 854.796 9.78275 856.342 11.5012 857.887 13.2197 859.074 16.0838 859.902 20.0934 861.255 26.7096 862.607 33.3256 863.96 39.9416 863.156 39.9425 862.352 39.9434 861.548 39.9443 861.223 38.4247 860.898 36.9053 860.574 35.3857 860.297 37.0473 859.49 38.3294 858.151 39.2321 856.812 40.1347 855.286 40.5861 853.574 40.5861ZM806.907 40.5861C803.402 40.5861 800.6 39.1852 798.503 36.3835 796.405 33.5819 795.356 30.3084 795.356 26.5632 795.356 23.6472 796.108 21.353 797.613 19.6807 799.117 18.0083 801.263 17.1721 804.05 17.1721 806.589 17.1721 808.666 17.8343 810.281 19.1588 811.895 20.4832 813.061 22.3986 813.779 24.9052 812.909 24.9052 812.04 24.9052 811.171 24.9052 810.674 23.2856 809.798 21.9713 808.542 20.9624 807.286 19.9535 805.83 19.4491 804.174 19.4491 802.132 19.4491 800.586 20.0903 799.538 21.3729 798.489 22.6555 797.964 24.337 797.964 26.4175 798.006 26.9874 798.047 27.5574 798.089 28.1273 803.664 28.1273 809.239 28.1273 814.814 28.1273 814.897 28.786 814.952 29.4375 814.979 30.082 815.007 30.7264 815.021 31.3493 815.021 31.9508 815.021 34.5571 814.303 36.6479 812.868 38.2232 811.433 39.7984 809.446 40.5861 806.907 40.5861ZM742.384 40.5861C738.741 40.5861 735.843 39.1852 733.69 36.3835 731.537 33.5819 730.461 30.2514 730.461 26.392 730.461 23.5615 731.206 21.3172 732.697 19.6591 734.187 18.0012 736.284 17.1721 738.989 17.1721 742.743 17.1721 745.654 18.6229 747.724 21.5247 749.794 24.4263 750.829 27.8928 750.829 31.924 750.829 34.6113 750.056 36.7268 748.511 38.2704 746.965 39.8142 744.923 40.5861 742.384 40.5861ZM719.881 40.5861C718.363 40.5861 716.921 40.1493 715.555 39.2757 714.188 38.4021 713.064 37.278 712.181 35.9033 712.429 37.2494 712.677 38.5955 712.926 39.9416 712.125 39.9416 711.325 39.9416 710.525 39.9416 708.993 32.5523 707.461 25.1629 705.929 17.7736 706.803 17.7724 707.678 17.7713 708.553 17.7703 709.34 21.5651 710.127 25.36 710.913 29.155 711.492 31.9627 712.546 34.1903 714.076 35.8378 715.606 37.4854 717.336 38.3091 719.266 38.3091 720.561 38.3091 721.629 37.9869 722.47 37.3425 723.31 36.698 723.731 35.6885 723.731 34.3137 723.731 33.6263 723.634 32.8816 723.441 32.0797 722.448 27.311 721.454 22.5423 720.461 17.7736 721.336 17.7722 722.211 17.7709 723.086 17.7695 724.06 22.511 725.033 27.2523 726.007 31.9938 726.228 33.0821 726.339 33.9556 726.339 34.6144 726.339 36.6766 725.759 38.1874 724.6 39.1469 723.441 40.1063 721.868 40.5861 719.881 40.5861ZM640.565 40.5861C636.922 40.5861 634.024 39.1852 631.871 36.3835 629.719 33.5819 628.642 30.2514 628.642 26.392 628.642 23.5615 629.387 21.3172 630.878 19.6591 632.368 18.0012 634.466 17.1721 637.17 17.1721 640.924 17.1721 643.836 18.6229 645.905 21.5247 647.975 24.4263 649.01 27.8928 649.01 31.924 649.01 34.6113 648.238 36.7268 646.692 38.2704 645.147 39.8142 643.104 40.5861 640.565 40.5861ZM601.279 40.5861C599.761 40.5861 598.319 40.1493 596.952 39.2757 595.586 38.4021 594.462 37.278 593.578 35.9033 593.827 37.2494 594.075 38.5955 594.324 39.9416 593.523 39.9416 592.723 39.9416 591.922 39.9416 590.391 32.5523 588.859 25.1629 587.327 17.7736 588.201 17.7724 589.076 17.7713 589.951 17.7703 590.738 21.5651 591.524 25.36 592.311 29.155 592.89 31.9627 593.944 34.1903 595.474 35.8378 597.004 37.4854 598.734 38.3091 600.663 38.3091 601.959 38.3091 603.027 37.9869 603.868 37.3425 604.708 36.698 605.129 35.6885 605.129 34.3137 605.129 33.6263 605.032 32.8816 604.839 32.0797 603.846 27.311 602.852 22.5423 601.859 17.7736 602.734 17.7722 603.609 17.7709 604.484 17.7695 605.458 22.511 606.431 27.2523 607.405 31.9938 607.626 33.0821 607.737 33.9556 607.737 34.6144 607.737 36.6766 607.157 38.1874 605.998 39.1469 604.839 40.1063 603.266 40.5861 601.279 40.5861ZM577.535 40.5861C574.03 40.5861 571.228 39.1852 569.131 36.3835 567.033 33.5819 565.984 30.3084 565.984 26.5632 565.984 23.6472 566.736 21.353 568.241 19.6807 569.745 18.0083 571.891 17.1721 574.678 17.1721 577.217 17.1721 579.294 17.8343 580.909 19.1588 582.523 20.4832 583.689 22.3986 584.407 24.9052 583.538 24.9052 582.668 24.9052 581.799 24.9052 581.302 23.2856 580.426 21.9713 579.17 20.9624 577.914 19.9535 576.458 19.4491 574.802 19.4491 572.76 19.4491 571.215 20.0903 570.166 21.3729 569.117 22.6555 568.593 24.337 568.593 26.4175 568.634 26.9874 568.675 27.5574 568.717 28.1273 574.292 28.1273 579.867 28.1273 585.442 28.1273 585.525 28.786 585.58 29.4375 585.607 30.082 585.635 30.7264 585.649 31.3493 585.649 31.9508 585.649 34.5571 584.931 36.6479 583.496 38.2232 582.061 39.7984 580.074 40.5861 577.535 40.5861ZM515.458 40.5861C513.029 40.5861 511.001 39.9775 509.372 38.7601 507.744 37.5429 506.764 35.7314 506.433 33.3256 507.302 33.3256 508.172 33.3256 509.041 33.3256 509.289 35.1013 510.014 36.3759 511.214 37.1491 512.415 37.9224 513.926 38.3091 515.748 38.3091 517.017 38.3091 518.087 38.0804 518.956 37.6231 519.825 37.1657 520.26 36.3369 520.26 35.1367 520.26 33.7359 520.053 32.7212 519.639 32.0925 519.225 31.4637 518.652 31.0563 517.921 30.8704 517.19 30.6845 515.954 30.5415 514.216 30.4415 512.477 30.3414 510.925 30.1699 509.558 29.9269 508.192 29.684 506.84 29.0551 505.501 28.0406 504.163 27.0261 503.493 25.4468 503.493 23.3028 503.493 21.2165 504.111 19.6731 505.346 18.6727 506.582 17.6723 508.254 17.1721 510.364 17.1721 511.891 17.1721 513.334 17.5334 514.694 18.2562 516.055 18.979 517.096 19.9637 517.817 21.2105 517.817 21.1818 517.817 21.1532 517.817 21.1246 517.817 20.7236 517.817 20.3226 517.817 19.9216 517.817 19.1483 518.014 18.554 518.408 18.1387 518.801 17.7234 519.35 17.5158 520.055 17.5158 520.841 17.5158 521.547 17.5874 522.171 17.7306 522.293 18.4467 522.415 19.1627 522.537 19.8787 522.192 19.85 521.847 19.8214 521.502 19.7928 521.116 19.7928 520.791 19.8572 520.529 19.986 520.267 20.1149 520.136 20.3512 520.136 20.6949 520.136 21.2677 520.315 22.3632 520.674 23.9815 521.033 25.5996 521.316 26.9243 521.523 27.9554 521.73 28.9865 522.006 30.2538 522.351 31.7575 522.696 33.2611 522.868 34.5571 522.868 35.6454 522.868 37.3926 522.095 38.6528 520.55 39.4261 519.004 40.1993 517.307 40.5861 515.458 40.5861ZM1049.05 46.6435C1048.59 44.4091 1048.14 42.1747 1047.69 39.9402 1046.4 39.9408 1045.12 39.9412 1043.83 39.9416 1043.67 39.1826 1043.5 38.4237 1043.33 37.6646 1044.62 37.6646 1045.9 37.6646 1047.18 37.6646 1046.2 32.767 1045.23 27.8694 1044.25 22.9718 1044.22 22.7427 1044.16 22.4563 1044.08 22.1126 1044 21.7689 1043.96 21.2964 1043.96 20.6949 1043.96 19.4634 1044.31 18.6256 1045.03 18.1817 1045.75 17.7378 1046.71 17.5158 1047.89 17.5158 1048.42 17.5158 1048.79 17.523 1049.01 17.5373 1049.23 17.5516 1049.75 17.6017 1050.55 17.6876 1050.7 18.4753 1050.85 19.2629 1051 20.0505 1049.95 19.8787 1048.93 19.7928 1047.93 19.7928 1047.43 19.7928 1047.08 19.9361 1046.87 20.2227 1046.67 20.5093 1046.56 20.882 1046.56 21.3407 1046.56 21.5989 1046.59 21.9143 1046.64 22.2868 1046.69 22.6595 1046.76 23.0464 1046.84 23.4478 1047.83 28.1857 1048.82 32.9235 1049.81 37.6613 1051.25 37.6625 1052.7 37.6636 1054.14 37.6646 1054.28 38.4237 1054.42 39.1826 1054.55 39.9416 1053.14 39.94 1051.72 39.9385 1050.31 39.9369 1050.76 42.1713 1051.22 44.4058 1051.67 46.6402 1050.8 46.6414 1049.92 46.6425 1049.05 46.6435ZM995.469 48.4479C997.015 38.2232 998.56 27.9983 1000.11 17.7736 1001.2 17.7736 1002.29 17.7736 1003.38 17.7736 1009.06 27.9983 1014.75 38.2232 1020.43 48.4479 1019.41 48.4473 1018.39 48.4467 1017.37 48.4459 1012.29 39.0453 1007.2 29.6446 1002.12 20.2439 1000.87 29.6448 999.614 39.0457 998.361 48.4467 997.397 48.4471 996.433 48.4475 995.469 48.4479ZM664.468 48.4479C662.757 48.4479 661.466 48.004 660.595 47.1161 659.724 46.2283 659.109 44.9108 658.75 43.1637 658.529 42.0908 658.308 41.0179 658.086 39.945 656.863 39.9439 655.64 39.9427 654.417 39.9416 654.251 39.1826 654.086 38.4237 653.92 37.6646 655.163 37.6644 656.406 37.6642 657.649 37.664 656.241 31.0339 654.832 24.4037 653.423 17.7736 654.285 17.7753 655.147 17.7771 656.009 17.779 657.431 24.406 658.853 31.033 660.275 37.66 661.662 37.6615 663.048 37.6631 664.435 37.6646 664.601 38.4237 664.767 39.1826 664.932 39.9416 663.512 39.9445 662.092 39.9474 660.672 39.9504 660.888 40.9792 661.105 42.008 661.321 43.0369 661.57 44.1816 661.963 44.9901 662.501 45.4625 663.039 45.9349 663.902 46.171 665.089 46.171 665.613 46.0851 666.151 45.9992 666.703 45.9132 666.855 46.658 667.007 47.4026 667.159 48.1472 666.717 48.2904 666.31 48.3764 665.937 48.405 665.565 48.4336 665.075 48.4479 664.468 48.4479ZM974.382 48.4513C973.496 44.2275 972.61 40.0036 971.724 35.7797 971.255 37.4677 970.428 38.6908 969.243 39.4489 968.058 40.207 966.57 40.5861 964.778 40.5861 961.36 40.5861 958.563 39.0994 956.385 36.1261 954.208 33.1528 953.12 29.8509 953.12 26.2202 953.12 23.4473 953.81 21.2462 955.189 19.6165 956.569 17.9869 958.584 17.1721 961.234 17.1721 963 17.1721 964.504 17.5552 965.746 18.3213 966.988 19.0874 968.106 20.2367 969.099 21.7689 968.782 20.4371 968.465 19.1054 968.147 17.7736 968.989 17.7736 969.83 17.7736 970.672 17.7736 972.784 27.9983 974.895 38.2232 977.007 48.4479 976.132 48.449 975.257 48.4502 974.382 48.4513ZM838.997 48.4513C838.111 44.2275 837.225 40.0036 836.338 35.7797 835.87 37.4677 835.043 38.6908 833.858 39.4489 832.673 40.207 831.184 40.5861 829.393 40.5861 825.975 40.5861 823.177 39.0994 821 36.1261 818.823 33.1528 817.734 29.8509 817.734 26.2202 817.734 23.4473 818.424 21.2462 819.804 19.6165 821.184 17.9869 823.199 17.1721 825.848 17.1721 827.615 17.1721 829.119 17.5552 830.361 18.3213 831.603 19.0874 832.721 20.2367 833.714 21.7689 833.397 20.4371 833.079 19.1054 832.762 17.7736 833.603 17.7736 834.445 17.7736 835.287 17.7736 837.398 27.9983 839.51 38.2232 841.621 48.4479 840.746 48.449 839.872 48.4502 838.997 48.4513ZM562.632 48.4513C561.745 44.2275 560.859 40.0036 559.973 35.7797 559.504 37.4677 558.677 38.6908 557.492 39.4489 556.307 40.207 554.819 40.5861 553.028 40.5861 549.61 40.5861 546.812 39.0994 544.635 36.1261 542.458 33.1528 541.369 29.8509 541.369 26.2202 541.369 23.4473 542.059 21.2462 543.439 19.6165 544.819 17.9869 546.834 17.1721 549.483 17.1721 551.249 17.1721 552.754 17.5552 553.996 18.3213 555.237 19.0874 556.355 20.2367 557.349 21.7689 557.031 20.4371 556.714 19.1054 556.397 17.7736 557.238 17.7736 558.08 17.7736 558.921 17.7736 561.033 27.9983 563.144 38.2232 565.256 48.4479 564.381 48.449 563.507 48.4502 562.632 48.4513ZM1024.46 48.452C1024.14 47.0079 1023.83 45.5637 1023.52 44.1196 1024.39 44.1185 1025.26 44.1173 1026.14 44.1162 1026.45 45.5602 1026.77 47.004 1027.08 48.4479 1026.21 48.4493 1025.33 48.4506 1024.46 48.452ZM791.729 48.452C789.604 38.227 787.479 28.0019 785.354 17.7769 786.229 17.7758 787.104 17.7747 787.98 17.7736 790.104 27.9983 792.229 38.2232 794.354 48.4479 793.479 48.4493 792.604 48.4506 791.729 48.452ZM684.893 48.452C682.796 38.2272 680.699 28.0024 678.601 17.7776 679.546 17.7763 680.491 17.7749 681.436 17.7736 682.162 21.3154 682.888 24.8573 683.615 28.3991 685.806 30.2142 687.998 32.0293 690.189 33.8445 693.335 28.4911 696.48 23.1377 699.626 17.7843 700.696 17.7805 701.767 17.7767 702.837 17.7728 699.318 23.7309 695.799 29.6888 692.281 35.6468 697.334 39.9105 702.387 44.1742 707.441 48.4379 706.127 48.4413 704.814 48.4446 703.5 48.4479 697.147 42.9708 690.795 37.4937 684.442 32.0166 684.405 32.0419 684.367 32.0672 684.33 32.0925 685.462 37.5443 686.595 42.9961 687.727 48.4479 686.782 48.4493 685.838 48.4506 684.893 48.452ZM490.049 49.0924C485.026 49.0924 481.086 47.226 478.23 43.4933 475.373 39.7606 473.945 35.2629 473.945 30.0001 473.945 26.0243 474.98 22.8924 477.05 20.6043 479.12 18.3161 482.045 17.1721 485.826 17.1721 488.172 17.1721 490.242 17.634 492.036 18.5579 493.83 19.4818 495.362 20.9389 496.631 22.9289 496.466 21.2105 496.3 19.492 496.135 17.7736 496.769 17.7736 497.404 17.7736 498.039 17.7736 499.074 22.9863 500.109 28.1988 501.144 33.4115 496.935 33.4115 492.726 33.4115 488.517 33.4115 488.324 32.5809 488.131 31.7503 487.938 30.9197 491.332 30.9197 494.727 30.9197 498.122 30.9197 497.597 27.626 496.286 24.9267 494.189 22.8215 492.091 20.7165 489.469 19.6639 486.323 19.6639 483.232 19.6639 480.865 20.6147 479.223 22.5161 477.581 24.4176 476.76 26.9698 476.76 30.1726 476.76 34.4906 477.995 38.3082 480.465 41.6252 482.935 44.9421 486.047 46.6006 489.8 46.6006 492.588 46.6006 494.81 45.9599 496.466 44.6785 498.122 43.397 498.95 41.5173 498.95 39.0394 499.888 39.0394 500.826 39.0394 501.765 39.0394 501.765 42.2334 500.737 44.7073 498.681 46.4614 496.624 48.2154 493.747 49.0924 490.049 49.0924ZM352.513 63 356.951 62.8326 1254 62.8326 1254 52.1676C1254 23.4119 1219.56 0.0996378 1177.07 0.0996378L1073.13 0.0996378 1071.87 0 0 0.00145154 0.00314992 2.94258 306.508 2.94258C332.478 9.96595 354.176 29.3456 354.176 52.1676 354.176 55.8817 353.601 59.5094 352.513 63Z" fill="#FFFFFF" fill-rule="evenodd" transform="matrix(1 0 0 -1.00134 21 374.499)"/></g></svg>